<svg width="1000" height="1000" viewBox="0 0 1000 1000" fill="none" xmlns="http://www.w3.org/2000/svg">
<g clip-path="url(#clip0_735_21)">
<path fill-rule="evenodd" clip-rule="evenodd" d="M1000 0H0V1000H1000V0ZM688.057 621.455C698.799 602.298 704.17 582.067 704.17 560.762C704.17 540.352 700.589 523.254 693.428 509.468C686.445 495.503 676.24 483.597 662.812 473.75C649.385 463.724 633.092 454.414 613.936 445.82C594.6 436.869 579.292 429.618 568.013 424.067C556.912 418.338 548.945 413.057 544.111 408.223C539.456 403.389 537.129 397.928 537.129 391.841C537.129 387.007 538.472 382.71 541.157 378.95C544.022 375.19 548.319 372.236 554.048 370.088C559.956 367.76 567.476 366.597 576.606 366.597C590.571 366.597 605.7 368.924 621.992 373.579C624.164 374.176 626.34 374.801 628.522 375.455C652.584 382.668 679.447 372.251 688.71 348.901C697.36 327.097 687.336 302.209 664.976 295.119C659.755 293.464 654.379 291.866 648.848 290.327C628.438 284.598 605.431 281.733 579.829 281.733C550.646 281.733 524.865 286.03 502.485 294.624C480.285 303.218 462.918 316.108 450.386 333.296C438.032 350.304 431.855 371.431 431.855 396.675C431.855 413.504 434.093 428.096 438.569 440.449C443.045 452.803 449.401 463.634 457.637 472.944C466.051 482.075 476.077 490.221 487.715 497.383C499.531 504.544 512.69 511.527 527.192 518.33C544.201 526.029 557.897 532.474 568.281 537.666C578.665 542.858 586.185 547.871 590.84 552.705C595.674 557.36 598.091 563.089 598.091 569.893C598.091 575.622 596.479 580.724 593.257 585.2C590.034 589.497 585.021 592.899 578.218 595.405C571.593 597.912 563 599.165 552.437 599.165C534.891 599.165 515.286 596.39 493.623 590.84C493.248 590.741 492.873 590.641 492.497 590.54C462.385 582.453 429.17 602.94 429.17 634.119C429.17 650.324 438.426 665.341 453.598 671.033C457.59 672.531 461.533 673.909 465.425 675.166C477.062 678.747 489.595 681.343 503.022 682.954C516.629 684.565 532.384 685.371 550.288 685.371C586.095 685.371 615.278 679.463 637.837 667.647C660.575 655.83 677.314 640.433 688.057 621.455ZM306.607 274.953C300.749 269.095 300.749 259.598 306.607 253.74L349.74 210.607C355.598 204.749 365.095 204.749 370.953 210.607L414.087 253.74C419.945 259.598 419.945 269.095 414.087 274.953L370.953 318.087C365.095 323.945 355.598 323.945 349.74 318.087L306.607 274.953ZM359.5 353C334.371 353 314 373.371 314 398.5V753.5C314 778.629 334.371 799 359.5 799C384.629 799 405 778.629 405 753.5V398.5C405 373.371 384.629 353 359.5 353Z" fill="white"/>
</g>
<defs>
<clipPath id="clip0_735_21">
<rect width="1000" height="1000" fill="white"/>
</clipPath>
</defs>
</svg>
