<svg width="200" height="200" viewBox="0 0 200 200" fill="none" xmlns="http://www.w3.org/2000/svg">
<path d="M200 93.753C199.646 94.1489 199.333 94.6073 198.937 94.9615C197.312 96.3783 195.625 96.3991 194.166 94.8156C192.895 93.4196 192.916 91.7736 194.187 90.4193C195.645 88.8775 197.375 88.8775 198.979 90.336C199.375 90.6902 199.667 91.1694 200 91.5861C200 92.3153 200 93.0446 200 93.753Z" fill="#65C82A"/>
<path d="M186.853 97.7326C186.853 103.796 186.853 109.859 186.853 115.922C186.853 118.11 187.207 119.86 190.082 118.964C190.645 118.797 191.312 118.714 191.228 119.506C191.124 120.756 192.041 122.277 190.457 123.173C187.249 125.006 182.623 122.902 181.873 119.256C181.686 118.381 181.644 117.464 181.644 116.568C181.623 104.171 181.644 91.7736 181.602 79.3765C181.602 77.5013 181.748 76.3345 184.165 76.3553C186.415 76.3762 186.894 77.2096 186.853 79.2515C186.79 85.4188 186.853 91.5653 186.853 97.7326Z" fill="#65C82A"/>
<path d="M117.721 115.734C119.658 110.755 121.346 106.379 123.054 102.025C123.825 100.066 126.784 98.9202 128.555 99.837C129.388 100.275 129.055 100.879 128.826 101.441C126.034 108.192 123.221 114.943 120.45 121.714C119.887 123.11 118.783 123.131 117.554 123.131C116.387 123.131 115.491 122.985 114.97 121.714C112.241 115.026 109.47 108.359 106.678 101.691C106.074 100.233 106.574 99.837 108.074 99.7328C110.407 99.5661 111.866 100.045 112.678 102.629C114.033 106.9 115.887 111.046 117.721 115.734Z" fill="#64C728"/>
<path d="M163.392 102.775C166.809 99.6703 170.08 98.5243 173.893 99.7536C175.706 100.337 177.123 101.441 177.748 103.275C178.185 104.546 179.227 106.338 177.456 107.025C176.039 107.567 173.976 108.129 173.06 105.483C172.372 103.483 169.914 103.108 167.726 104.379C164.996 105.963 163.705 108.463 163.6 111.547C163.496 114.693 163.455 117.86 163.559 121.027C163.621 123.069 162.496 123.11 160.996 123.131C159.475 123.131 158.412 123.089 158.454 121.048C158.558 114.818 158.475 108.588 158.496 102.358C158.496 101.129 158.204 99.6494 160.246 99.7745C161.85 99.8786 164.1 99.0661 163.392 102.775Z" fill="#64C728"/>
<path d="M199.104 111.484C199.104 114.568 199.062 117.63 199.125 120.714C199.167 122.402 198.562 123.173 196.75 123.152C195.062 123.131 193.999 122.839 194.02 120.797C194.104 114.568 194.083 108.317 194.02 102.087C193.999 100.275 194.895 99.7745 196.541 99.7745C198.166 99.7745 199.146 100.17 199.104 102.025C199.062 105.15 199.104 108.317 199.104 111.484Z" fill="#64C729"/>
<path d="M68.3613 89.4609C67.2362 86.1897 64.7359 84.3145 62.5065 84.6479C59.277 85.1063 58.5478 87.6899 57.9435 90.3151C57.7977 90.9194 57.7143 91.5653 57.5685 92.1695C57.0476 94.128 56.7767 96.1908 55.3808 98.191C53.6931 95.6907 52.7555 93.0863 51.7346 90.5443C49.276 84.3562 47.3591 77.9388 44.5671 71.8757C43.317 69.1463 41.8794 66.5627 39.1291 65C38.3998 65 37.6706 65 36.9622 65C34.8786 65.6042 33.3785 66.8752 33.1701 69.0838C32.7534 73.4175 32.8993 77.7513 34.4411 81.9184C34.5036 82.0851 34.5869 82.1059 34.6911 82.0226C34.962 81.7726 34.6078 82.3976 34.3786 81.8976C31.9617 77.5846 29.6073 73.0217 26.5028 68.8754C25.1068 67.021 23.5858 65.4584 21.1897 65.0208C20.2938 65.0208 19.377 65.0208 18.4811 65.0208C15.1682 66.2085 14.2098 67.8545 14.8974 71.4382C16.0225 77.3346 19.1478 82.4393 21.3147 87.3773C20.9814 86.8773 20.3355 86.0022 19.6479 85.1688C18.7311 84.0645 17.8769 82.8769 16.9184 81.7934C15.5225 80.2308 13.9806 78.8348 11.9179 78.2097C8.12585 77.0638 5.41723 79.0431 5.31305 82.9602C5.25055 84.9187 5.83394 86.6898 6.62569 88.4399C8.2717 92.0028 10.3552 95.3365 12.1263 98.7535C10.772 97.1492 9.08428 95.7949 7.27159 94.6281C3.70872 92.3362 1.41681 93.1071 0 97.045C0 98.316 0 99.5869 0 100.837C0.60423 103.191 1.25013 105.463 2.5211 107.609C6.20898 113.797 10.6886 119.339 16.1058 124.027C21.9815 129.132 28.2321 133.736 36.3996 134.507C38.3998 134.507 40.3792 134.507 42.3794 134.507C46.4632 132.674 48.8593 129.486 49.7135 125.194C50.0052 123.756 50.7344 123.61 51.9429 123.61C57.7977 123.61 62.4857 121.193 65.611 116.235C70.9032 107.775 71.57 98.7744 68.3613 89.4609ZM45.088 118.006C40.8376 116.922 36.7122 115.589 34.2119 111.547C33.7118 110.755 33.5452 109.88 33.5868 108.942C33.6702 106.525 34.837 104.837 37.1289 104.046C39.5666 103.212 41.7127 103.858 43.0878 105.983C45.1922 109.255 45.8798 112.984 46.0048 116.818C46.0465 117.443 46.109 118.276 45.088 118.006ZM58.1519 117.193C57.1935 117.839 56.0475 118.276 54.9224 118.547C51.2345 119.485 50.797 119.11 50.6094 115.38C50.4219 111.734 49.6718 108.213 48.005 104.942C46.0048 101.025 42.7544 98.9619 38.3582 99.2119C34.3369 99.4411 31.3783 101.545 29.7739 105.275C28.0029 109.4 29.003 113.047 31.9408 116.255C34.9828 119.61 38.9624 121.36 43.2337 122.318C45.3381 122.798 45.4006 123.631 44.8172 125.298C43.6087 128.777 42.2336 129.778 38.6082 129.632C36.0246 129.528 33.5868 128.819 31.3158 127.694C20.1479 122.193 11.9596 113.609 6.02146 102.816C5.56308 101.962 5.31305 101.004 5.31305 99.8161C6.89655 101.316 8.48005 102.837 10.0844 104.317C10.9386 105.108 11.8137 105.921 12.793 106.567C14.4807 107.713 16.2934 108.129 18.0852 106.775C19.7937 105.483 19.8146 103.712 19.2937 101.858C18.3561 98.4202 16.4392 95.4407 14.7724 92.3362C13.3139 89.6692 11.6887 87.0856 10.6053 83.6686C13.0639 85.1479 14.2098 87.1065 15.6058 88.7941C17.3976 90.9402 18.9811 93.2946 21.1064 95.149C22.5857 96.4616 24.2525 97.4617 26.2736 96.4199C28.4405 95.3157 28.5446 93.3154 28.2321 91.2527C27.8779 88.8983 26.857 86.7731 25.9402 84.627C23.9192 79.9391 21.3981 75.4386 19.8979 69.8547C21.8564 71.2298 22.7524 72.7508 23.6483 74.2093C26.0027 78.0639 28.2529 81.9809 30.5865 85.8563C31.5241 87.3982 32.5451 88.9192 34.0452 89.9818C36.7122 91.8778 39.3583 90.7527 39.7541 87.4815C40.1292 84.2937 39.3374 81.1892 38.9207 78.0639C38.6082 75.7511 38.3165 73.4175 37.9414 70.6256C39.5875 71.8965 40.0458 73.3759 40.5876 74.7093C43.2337 81.4184 45.7548 88.1899 48.3592 94.9198C49.2135 97.1075 50.1927 99.2536 51.6512 101.108C54.4432 104.65 58.2352 104.254 60.2563 100.191C61.4647 97.7326 61.6731 94.9823 62.319 92.357C62.5065 91.5861 62.3398 90.6902 63.1732 90.1693C68.0904 97.4826 65.3401 112.359 58.1519 117.193Z" fill="#64C728"/>
<path d="M146.974 100.233C142.265 98.3993 136.931 99.3577 133.681 102.837C129.972 106.817 129.451 111.505 131.285 116.443C132.951 120.922 137.41 123.589 142.702 123.631C146.119 123.714 149.057 122.61 151.62 120.339C152.953 119.172 152.974 118.339 151.724 117.047C150.411 115.714 149.682 116.026 148.411 117.13C144.473 120.61 138.494 119.777 136.223 115.609C135.327 113.963 135.243 113.047 137.639 113.109C142.244 113.234 146.869 113.151 151.474 113.151C152.662 113.151 153.766 113.276 153.891 111.463C154.204 106.754 151.307 101.9 146.974 100.233ZM136.993 108.984C135.66 109.005 135.431 108.588 135.952 107.421C137.014 105.108 140.119 103.4 142.911 103.65C145.911 103.921 147.911 105.733 148.599 108.963C144.703 108.963 140.848 108.921 136.993 108.984Z" fill="#64C728"/>
<path d="M88.405 113.13C90.7594 113.234 93.1139 113.151 95.4474 113.151C97.8018 113.151 100.156 113.068 102.49 113.172C104.344 113.255 105.032 112.651 104.969 110.692C104.719 101.837 95.9267 96.545 87.8841 100.566C83.1545 102.941 81.2585 107.004 81.446 112.13C81.6335 116.86 83.8004 120.485 88.1967 122.381C93.218 124.527 98.031 124.11 102.427 120.547C104.198 119.131 104.032 118.131 102.469 116.693C101.156 115.484 100.531 116.235 99.5729 117.047C95.3641 120.652 89.0926 119.672 87.0924 115.193C86.5298 113.88 86.4882 113.047 88.405 113.13ZM93.4681 103.629C96.6976 103.65 98.9478 105.483 99.7187 108.838C95.4266 108.838 91.1553 108.838 86.8424 108.838C87.6758 105.525 90.1344 103.629 93.4681 103.629Z" fill="#64C728"/>
</svg>
