<svg width="140" height="140" viewBox="0 0 140 140" fill="none" xmlns="http://www.w3.org/2000/svg">
<path d="M140 65.6271C139.752 65.9042 139.533 66.2251 139.256 66.473C138.119 67.4648 136.937 67.4794 135.916 66.3709C135.027 65.3937 135.041 64.2415 135.931 63.2935C136.952 62.2142 138.162 62.2142 139.285 63.2352C139.562 63.4831 139.767 63.8186 140 64.1103C140 64.6207 140 65.1312 140 65.6271Z" fill="#65C82A"/>
<path d="M130.797 68.4128C130.797 72.657 130.797 76.9012 130.797 81.1454C130.797 82.6768 131.045 83.9019 133.058 83.2748C133.451 83.1581 133.918 83.0997 133.86 83.654C133.787 84.5291 134.429 85.5938 133.32 86.2209C131.074 87.5044 127.836 86.0313 127.311 83.479C127.18 82.8664 127.151 82.2247 127.151 81.5975C127.136 72.9195 127.151 64.2415 127.122 55.5635C127.122 54.2509 127.224 53.4342 128.916 53.4487C130.491 53.4633 130.826 54.0467 130.797 55.476C130.753 59.7932 130.797 64.0957 130.797 68.4128Z" fill="#65C82A"/>
<path d="M82.4044 81.0141C83.7608 77.5283 84.9422 74.4655 86.1381 71.4173C86.6778 70.0463 88.7488 69.2441 89.9885 69.8859C90.5719 70.1922 90.3386 70.6151 90.1781 71.0089C88.2238 75.7344 86.2548 80.4599 84.315 85.2C83.9212 86.1772 83.1482 86.1917 82.2877 86.1917C81.471 86.1917 80.8438 86.0896 80.4792 85.2C78.5686 80.5182 76.6288 75.8511 74.6744 71.1839C74.2515 70.163 74.6015 69.8859 75.6516 69.8129C77.2851 69.6963 78.3061 70.0317 78.8749 71.8402C79.8229 74.8301 81.1209 77.7325 82.4044 81.0141Z" fill="#64C728"/>
<path d="M114.374 71.9423C116.766 69.7692 119.056 68.967 121.725 69.8275C122.994 70.2359 123.986 71.0089 124.423 72.2924C124.73 73.1821 125.459 74.4363 124.219 74.9176C123.227 75.2969 121.784 75.6906 121.142 73.8384C120.66 72.4382 118.939 72.1757 117.408 73.0654C115.497 74.1738 114.593 75.924 114.52 78.0826C114.447 80.2849 114.418 82.5018 114.491 84.7187C114.535 86.148 113.747 86.1772 112.697 86.1917C111.632 86.1917 110.889 86.1626 110.918 84.7333C110.991 80.3724 110.932 76.0115 110.947 71.6506C110.947 70.7901 110.743 69.7546 112.172 69.8421C113.295 69.915 114.87 69.3462 114.374 71.9423Z" fill="#64C728"/>
<path d="M139.373 78.0388C139.373 80.1974 139.344 82.3413 139.387 84.4999C139.417 85.6813 138.994 86.2209 137.725 86.2063C136.543 86.1917 135.8 85.9875 135.814 84.5582C135.872 80.1974 135.858 75.8219 135.814 71.461C135.8 70.1922 136.427 69.8421 137.579 69.8421C138.717 69.8421 139.402 70.1192 139.373 71.4173C139.344 73.605 139.373 75.8219 139.373 78.0388Z" fill="#64C729"/>
<path d="M47.8529 62.6226C47.0653 60.3328 45.3151 59.0202 43.7546 59.2535C41.4939 59.5744 40.9834 61.3829 40.5605 63.2206C40.4584 63.6436 40.4 64.0957 40.2979 64.5186C39.9333 65.8896 39.7437 67.3335 38.7665 68.7337C37.5852 66.9835 36.9288 65.1604 36.2142 63.381C34.4932 59.0493 33.1514 54.5572 31.197 50.313C30.3219 48.4024 29.3156 46.5939 27.3904 45.5C26.8799 45.5 26.3694 45.5 25.8735 45.5C24.415 45.923 23.3649 46.8126 23.2191 48.3586C22.9274 51.3923 23.0295 54.4259 24.1088 57.3429C24.1525 57.4596 24.2109 57.4742 24.2838 57.4158C24.4734 57.2408 24.2254 57.6784 24.065 57.3283C22.3732 54.3092 20.7251 51.1152 18.5519 48.2128C17.5747 46.9147 16.5101 45.8209 14.8328 45.5146C14.2056 45.5146 13.5639 45.5146 12.9368 45.5146C10.6178 46.3459 9.94687 47.4981 10.4282 50.0067C11.2158 54.1342 13.4035 57.7075 14.9203 61.1641C14.6869 60.8141 14.2348 60.2015 13.7535 59.6181C13.1118 58.8451 12.5138 58.0138 11.8429 57.2554C10.8657 56.1615 9.78644 55.1843 8.34254 54.7468C5.68809 53.9446 3.79206 55.3302 3.71914 58.0721C3.67538 59.4431 4.08376 60.6828 4.63798 61.908C5.79019 64.402 7.24867 66.7355 8.48838 69.1275C7.54037 68.0044 6.359 67.0564 5.09011 66.2397C2.5961 64.6353 0.99177 65.175 0 67.9315C0 68.8212 0 69.7109 0 70.5859C0.422961 72.234 0.875091 73.8238 1.76477 75.326C4.34629 79.6577 7.48203 83.5373 11.2741 86.8189C15.387 90.3922 19.7625 93.6154 25.4797 94.1551C26.8799 94.1551 28.2654 94.1551 29.6656 94.1551C32.5242 92.8716 34.2015 90.6401 34.7995 87.6356C35.0036 86.6293 35.5141 86.5272 36.36 86.5272C40.4584 86.5272 43.74 84.8353 45.9277 81.3642C49.6323 75.4427 50.099 69.142 47.8529 62.6226ZM31.5616 82.6039C28.5863 81.8455 25.6985 80.912 23.9483 78.0826C23.5983 77.5283 23.4816 76.9158 23.5108 76.2595C23.5691 74.5676 24.3859 73.3862 25.9902 72.832C27.6966 72.2486 29.1989 72.7007 30.1615 74.1884C31.6345 76.4782 32.1158 79.0889 32.2034 81.7725C32.2325 82.2101 32.2763 82.7935 31.5616 82.6039ZM40.7063 82.0351C40.0354 82.4872 39.2333 82.7935 38.4457 82.9831C35.8642 83.6394 35.5579 83.3769 35.4266 80.7662C35.2953 78.2138 34.7703 75.749 33.6035 73.4592C32.2034 70.7172 29.9281 69.2733 26.8507 69.4483C24.0358 69.6088 21.9648 71.0818 20.8418 73.6925C19.602 76.5803 20.3021 79.1327 22.3586 81.3787C24.488 83.7269 27.2737 84.952 30.2636 85.6229C31.7366 85.9584 31.7804 86.5418 31.372 87.7086C30.5261 90.1442 29.5635 90.8443 27.0257 90.7422C25.2172 90.6693 23.5108 90.1734 21.921 89.3858C14.1036 85.5354 8.37171 79.5265 4.21502 71.9715C3.89416 71.3735 3.71914 70.7026 3.71914 69.8713C4.82759 70.9214 5.93604 71.9861 7.05907 73.0216C7.65705 73.5758 8.26961 74.1446 8.9551 74.5968C10.1365 75.3989 11.4054 75.6906 12.6597 74.7426C13.8556 73.8384 13.8702 72.5987 13.5056 71.3006C12.8493 68.8941 11.5074 66.8085 10.3407 64.6353C9.31972 62.7685 8.1821 60.9599 7.42369 58.568C9.1447 59.6036 9.94687 60.9745 10.9241 62.1559C12.1784 63.6581 13.2868 65.3062 14.7745 66.6043C15.81 67.5231 16.9768 68.2232 18.3915 67.494C19.9083 66.721 19.9812 65.3208 19.7625 63.8769C19.5145 62.2288 18.7999 60.7412 18.1581 59.2389C16.7434 55.9573 14.9786 52.807 13.9285 48.8983C15.2995 49.8609 15.9267 50.9256 16.5538 51.9465C18.2019 54.6447 19.7771 57.3867 21.4106 60.0994C22.0669 61.1787 22.7815 62.2434 23.8316 62.9872C25.6985 64.3145 27.5508 63.5269 27.8279 61.2371C28.0904 59.0056 27.5362 56.8324 27.2445 54.6447C27.0257 53.0258 26.8215 51.3923 26.559 49.4379C27.7112 50.3276 28.0321 51.3631 28.4113 52.2965C30.2636 56.9929 32.0283 61.7329 33.8514 66.4438C34.4494 67.9753 35.1349 69.4775 36.1558 70.7756C38.1102 73.255 40.7647 72.9779 42.1794 70.1338C43.0253 68.4128 43.1712 66.4876 43.6233 64.6499C43.7546 64.1103 43.6379 63.4831 44.2213 63.1185C47.6633 68.2378 45.7381 78.6514 40.7063 82.0351Z" fill="#64C728"/>
<path d="M102.882 70.163C99.5854 68.8795 95.8517 69.5504 93.5764 71.9861C90.9803 74.7718 90.6157 78.0534 91.8992 81.51C93.066 84.6457 96.1871 86.5126 99.8917 86.5418C102.284 86.6001 104.34 85.8271 106.134 84.2374C107.067 83.4206 107.082 82.8372 106.207 81.933C105.288 80.9995 104.778 81.2183 103.888 81.9913C101.131 84.427 96.9455 83.8436 95.3558 80.9266C94.7286 79.7744 94.6703 79.1327 96.3475 79.1764C99.5708 79.2639 102.809 79.2056 106.032 79.2056C106.863 79.2056 107.636 79.2931 107.724 78.0242C107.943 74.728 105.915 71.3298 102.882 70.163ZM95.8954 76.2886C94.962 76.3032 94.8015 76.0115 95.1662 75.1948C95.91 73.5758 98.0831 72.3799 100.038 72.5549C102.138 72.7445 103.538 74.0134 104.019 76.274C101.292 76.274 98.5936 76.2449 95.8954 76.2886Z" fill="#64C728"/>
<path d="M61.8835 79.191C63.5316 79.2639 65.1797 79.2056 66.8132 79.2056C68.4613 79.2056 70.1094 79.1473 71.7429 79.2202C73.0409 79.2785 73.5222 78.8556 73.4785 77.4846C73.3035 71.286 67.1487 67.5815 61.5189 70.3963C58.2081 72.059 56.8809 74.9031 57.0122 78.4909C57.1435 81.8017 58.6603 84.3395 61.7377 85.6667C65.2526 87.1689 68.6217 86.8772 71.6991 84.3832C72.9388 83.3914 72.8222 82.6914 71.7283 81.685C70.8095 80.8391 70.3719 81.3642 69.701 81.933C66.7549 84.4561 62.3648 83.7707 60.9647 80.6349C60.5709 79.7161 60.5417 79.1327 61.8835 79.191ZM65.4277 72.5403C67.6883 72.5549 69.2635 73.8384 69.8031 76.1865C66.7986 76.1865 63.8087 76.1865 60.7897 76.1865C61.3731 73.8675 63.0941 72.5403 65.4277 72.5403Z" fill="#64C728"/>
</svg>
