<svg width="140" height="140" viewBox="0 0 140 140" fill="none" xmlns="http://www.w3.org/2000/svg">
<path d="M60.8912 80.7581V69.1674C60.8912 68.5614 60.6885 68.3008 60.2373 68.392C59.7861 68.4833 59.6291 68.8286 59.6291 69.4345V81.0644L54.8426 82.2501V68.783L53.6198 69.0501V65.6491L59.6814 64.4307V65.5383C60.0607 64.7109 60.9893 64.1701 62.4017 63.8834C63.6572 63.6293 64.468 63.9877 64.8669 64.9129C65.1405 64.3563 65.545 63.8737 66.0459 63.5062C66.5468 63.1387 67.1294 62.8971 67.744 62.8019C69.7711 62.3914 70.7847 63.1016 70.7847 64.952V78.2888L66.2989 79.4225V68.0076C66.2989 67.4082 66.1028 67.1541 65.6908 67.2388C65.2788 67.3235 65.1023 67.6623 65.1023 68.2617V79.7157L60.8912 80.7581ZM132.971 62.9843V47.9926L132.186 48.1489V45.4972L135.926 44.8V50.0123C136.072 49.6768 136.307 49.387 136.605 49.1737C136.903 48.9603 137.254 48.8313 137.62 48.8005C138.928 48.5398 140 49.1327 140 50.6182V61.2382L137.142 61.9484V52.9247C137.159 52.8412 137.156 52.755 137.133 52.673C137.111 52.5909 137.069 52.5153 137.012 52.4521C136.955 52.3888 136.884 52.3397 136.804 52.3086C136.725 52.2776 136.639 52.2654 136.554 52.2731C136.374 52.3185 136.215 52.423 136.103 52.5696C135.99 52.7162 135.93 52.8964 135.933 53.081V62.2481L132.971 62.9843ZM131.349 57.5115V60.2609C131.42 61.1693 131.145 62.0709 130.579 62.7867C130.013 63.5025 129.198 63.98 128.295 64.1245L127.439 64.3395C125.385 64.8477 123.875 64.1506 123.875 62.0331V54.7099C123.875 52.5989 125.405 51.2698 127.491 50.8463L128.334 50.6638C130.348 50.2599 131.342 51.1199 131.342 53.2244V55.8109L128.289 56.4625V54.0453C128.289 53.4654 128.021 53.2895 127.739 53.3482C127.53 53.3876 127.342 53.5022 127.212 53.6704C127.082 53.8385 127.018 54.0485 127.033 54.2603V60.932C127.027 61.0391 127.048 61.146 127.093 61.2433C127.138 61.3405 127.207 61.4252 127.293 61.4896C127.379 61.5541 127.48 61.5964 127.586 61.6127C127.693 61.6291 127.801 61.6191 127.903 61.5835C128.06 61.5147 128.188 61.3925 128.264 61.2386C128.339 61.0847 128.357 60.9091 128.315 60.7431V58.2086L131.349 57.5115ZM122.279 51.9669V65.6491L120.56 66.0791C120.421 66.1371 120.272 66.1641 120.122 66.1584C119.972 66.1527 119.825 66.1143 119.692 66.046C119.559 65.9777 119.442 65.8811 119.35 65.763C119.258 65.6449 119.193 65.5082 119.16 65.3624C118.958 65.7589 118.671 66.1066 118.32 66.3812C117.968 66.6558 117.561 66.8506 117.127 66.9522C115.596 67.33 114.452 66.685 114.452 65.0692V56.5993C114.452 54.4688 115.596 53.283 117.127 52.9768C118.134 52.7748 118.781 53.0159 119.049 53.7V52.6184L122.279 51.9669ZM119.01 55.8761C119.026 55.7881 119.016 55.6973 118.983 55.6144C118.949 55.5314 118.893 55.4595 118.82 55.407C118.731 55.3471 118.627 55.315 118.519 55.315C118.412 55.315 118.307 55.3471 118.219 55.407C118.054 55.5058 117.923 55.6505 117.84 55.823C117.758 55.9956 117.728 56.1885 117.754 56.3778L117.709 62.5478C117.706 62.6469 117.726 62.7452 117.768 62.8353C117.809 62.9254 117.871 63.0049 117.948 63.0677C118.025 63.1305 118.115 63.175 118.212 63.1978C118.309 63.2207 118.409 63.2212 118.506 63.1993C118.591 63.1903 118.672 63.1629 118.745 63.1192C118.817 63.0755 118.879 63.0166 118.927 62.9464C118.974 62.8763 119.005 62.7967 119.019 62.7132C119.032 62.6297 119.027 62.5444 119.003 62.4631V55.8761H119.01ZM108.05 49.9276V55.8761C108.21 55.4545 108.484 55.0854 108.842 54.8104C109.2 54.5353 109.628 54.3651 110.078 54.3189C111.653 53.9997 112.863 54.8858 112.863 57.0293V65.5318C112.863 67.1541 111.653 68.1379 110.078 68.5484C108.999 68.8155 108.332 68.6722 108.05 68.0989V69.0566L104.493 69.9427V53.4915L103.637 53.6609V50.7485L108.05 49.9276ZM108.05 64.8216C108.05 65.4732 108.292 65.5188 108.704 65.4732C108.811 65.4629 108.914 65.4311 109.008 65.3797C109.101 65.3282 109.183 65.2582 109.249 65.174C109.314 65.0898 109.362 64.9932 109.389 64.89C109.415 64.7868 109.421 64.6793 109.404 64.5741V57.974C109.404 57.2378 108.894 57.2574 108.475 57.3616C108.418 57.3729 108.363 57.3926 108.312 57.4202C108.206 57.4893 108.122 57.5877 108.071 57.7034C108.02 57.8191 108.004 57.9471 108.024 58.0718V64.8216H108.05ZM102.872 66.887C102.872 69.1478 101.897 70.5356 99.9159 71.0242L97.3003 71.6758C95.4759 72.1318 94.567 71.1545 94.567 68.783V67.0955L97.8365 66.3853V67.8317C97.8365 68.3747 98.122 68.5788 98.6931 68.4442C98.9346 68.4117 99.1549 68.2897 99.3101 68.1025C99.4653 67.9153 99.5438 67.6767 99.5301 67.4343V66.1312C99.5301 65.4406 99.0005 65.1474 97.9084 65.2451L97.4246 65.3559C95.5479 65.7859 94.5997 64.8282 94.5997 62.8084V60.8538C94.5997 58.5344 95.6198 57.1531 97.66 56.7426L100.236 56.2214C102.008 55.8631 102.852 56.8729 102.852 59.1663V60.7756L99.7132 61.4858V60.0068C99.7363 59.8976 99.7279 59.784 99.6891 59.6793C99.6503 59.5746 99.5825 59.4829 99.4937 59.4148C99.4049 59.3467 99.2986 59.305 99.187 59.2945C99.0755 59.284 98.9632 59.305 98.8631 59.3553C98.6227 59.3816 98.4016 59.4992 98.2457 59.6835C98.0899 59.8679 98.0113 60.105 98.0262 60.3456V61.6487C98.0262 62.3393 98.5623 62.639 99.6478 62.5478L100.125 62.4436C101.95 62.0396 102.852 63.0039 102.852 64.952V66.887H102.872ZM84.9089 74.7705V62.3914L83.8365 62.6195V59.5703L88.9369 58.5409V59.5573C89.2573 58.808 90.0159 58.3259 91.2321 58.0783C92.9977 57.7199 93.2592 58.4562 93.2592 60.1827V64.0919L89.9897 64.8998V62.8996C89.9897 62.3393 89.8197 62.0982 89.4601 62.1764C89.1004 62.2546 88.95 62.5673 88.95 63.1211V73.7998L84.9089 74.7705ZM82.5156 69.656L82.5549 71.6758C82.5549 74.0864 81.1621 75.6957 78.3634 76.3929L77.1602 76.7251C74.3288 77.4288 72.8968 76.5297 72.8968 74.0473V65.5058C72.8968 63.0234 74.3484 61.4793 77.2256 60.8994L78.4026 60.6649C81.1686 60.1046 82.5287 61.0753 82.5287 63.5381V68.3334L77.2452 69.5583V72.7508C77.2452 73.3307 77.4872 73.5587 77.9972 73.4414C78.2335 73.394 78.4433 73.2598 78.585 73.0656C78.7267 72.8713 78.79 72.631 78.7623 72.3925V70.5356L82.5156 69.656ZM78.3634 66.685V64.6132C78.3634 64.0333 78.1803 63.7857 77.7945 63.8639C77.4087 63.9421 77.2452 64.2678 77.2452 64.8477V66.9522L78.3634 66.685ZM40.653 85.7424V73.4675C40.653 72.8159 40.4306 72.5553 39.9533 72.6531C39.7259 72.7241 39.5331 72.8767 39.4122 73.0814C39.2914 73.286 39.2512 73.5281 39.2994 73.7607V86.0812L33.9439 87.3842V73.1547L32.4923 73.4675V69.8775L39.2798 68.5093V69.6821C39.7048 68.8025 40.7053 68.2226 42.3204 67.8969C43.7263 67.6167 44.6287 67.9816 45.0733 68.9589C45.3935 68.3579 45.8508 67.8403 46.4085 67.4476C46.9661 67.0549 47.6085 66.7982 48.284 66.6981C50.5465 66.2355 51.6581 66.9522 51.6581 68.9068V82.9668L46.6558 84.2308V72.1644C46.6558 71.5129 46.44 71.2653 46.0019 71.363C45.7746 71.43 45.5811 71.5799 45.4599 71.7828C45.3387 71.9857 45.2987 72.2267 45.348 72.4576V84.5761L40.653 85.7424ZM30.9229 81.2859L30.9556 83.7878C30.9556 86.5763 29.0986 88.4462 25.3386 89.3779L23.7562 89.7688C19.944 90.7135 18.0084 89.7688 18.0084 86.8565V76.9662C18.0084 74.0864 19.9701 72.2296 23.8347 71.4542L25.4171 71.135C29.1247 70.3922 30.9491 71.4608 30.9491 74.308V79.8525L23.8412 81.4683V85.1951C23.8124 85.3247 23.8213 85.4599 23.8669 85.5846C23.9125 85.7094 23.993 85.8186 24.0987 85.8993C24.2045 85.9801 24.3312 86.0291 24.464 86.0405C24.5968 86.0519 24.7301 86.0254 24.8482 85.9639C25.1469 85.9234 25.4192 85.772 25.6108 85.5401C25.8023 85.3082 25.8989 85.0128 25.8814 84.7129V82.4456L30.9229 81.2859ZM25.3452 78.1259V75.7153C25.3452 75.0637 25.1032 74.764 24.5866 74.8748C24.3386 74.9382 24.124 75.0935 23.9868 75.3089C23.8495 75.5244 23.7998 75.7838 23.8477 76.0345V78.4778L25.3452 78.1259ZM1.68706 95.2808V71.7214L0 72.0537V68.1445L7.9972 66.659V75.9172C8.5007 74.9595 9.67772 74.308 11.574 73.9236C14.3204 73.3698 15.6871 74.1516 15.6871 76.3082V91.8016L9.63849 93.3066L9.61887 80.0154C9.61887 79.3182 9.35731 79.0251 8.79496 79.1488C8.53134 79.2126 8.30206 79.3742 8.15384 79.6006C8.00561 79.8269 7.94959 80.1011 7.9972 80.3672V93.7106L1.68706 95.2808Z" fill="#E36327"/>
</svg>
