<svg width="140" height="140" viewBox="0 0 140 140" fill="none" xmlns="http://www.w3.org/2000/svg">
<g clip-path="url(#clip0_237_63)">
<path d="M43.1409 88.3641H46.1815V60.4533H43.1409V88.3641ZM66.5221 88.3641V57.3659C66.5221 51.9322 63.5211 51.0007 61.9416 51.0007C60.3226 51.0007 59.4144 51.8805 58.6642 52.605L58.4924 52.4431C57.8074 51.8034 56.8751 51.0275 55.4604 51.0014L55.3563 51.0007C54.7898 51.0033 50.8457 51.128 50.8457 57.3659V88.3641H53.8862V57.3659C53.8862 55.163 55.1634 54.9888 55.4954 54.9855L55.5386 54.9858C55.8095 54.9914 57.1637 55.1045 57.1637 57.3659V88.3641H60.2042V57.3659C60.2042 55.163 61.4039 54.9888 61.8494 54.9855L61.8626 54.9855C62.5339 54.9855 63.4816 55.3477 63.4816 57.3659V88.3641H66.5221ZM121.984 58.6896L127.784 88.3641H124.744L123.674 82.7175H120.241L119.172 88.3641H116.131L121.932 58.6896H121.984ZM121.958 73.6565L120.787 79.8342H123.128L121.958 73.6565ZM71.6267 60.4845V81.9244C71.6267 86.9825 73.3732 89.1906 76.5626 89.1981C79.7521 89.2051 81.4872 86.9825 81.4985 81.9782V60.4845H78.458L78.4576 81.4485C78.4511 83.3779 78.4359 86.0814 76.5232 86.0781C74.6104 86.0747 74.6673 82.9927 74.6673 81.3237V60.4845H71.6267ZM88.842 88.3641C90.2635 85.8267 90.6189 83.1705 90.6189 81.5053L90.6183 81.3735C90.5987 79.3651 90.1263 77.945 88.8063 75.0968L88.763 75.0034C87.4599 72.1885 87.3415 70.9991 87.3415 69.5322C87.3415 65.9244 88.9209 62.7131 91.2902 60.4533H87.144C85.2486 63.0699 84.2615 66.202 84.2615 69.4926C84.2615 71.8323 84.7581 73.5584 85.789 75.8026L86.1894 76.6716C87.1927 78.862 87.5784 79.8794 87.5784 81.7036C87.5784 84.0427 86.5122 86.5007 84.9722 88.3641H88.842ZM93.9322 88.3641H96.9727V60.4533H93.9322V88.3641ZM105.422 88.3641H109.844L109.585 88.1387C107.413 86.2438 102.974 82.1333 102.974 74.369C102.974 66.4795 108.028 62.0391 109.844 60.4533H105.422C102.065 64.3386 99.9331 69.2151 99.9331 74.369C99.9331 79.5627 101.947 84.5184 105.422 88.3641ZM111.106 88.3641H114.146V60.4533H111.106V88.3641ZM133.302 88.3641H130.262V58.9864L136.895 70.563V60.4533H139.975V88.3641H136.895V76.1135L133.302 70.1269V88.3641ZM44.6965 55.6862C46.1504 55.6862 47.329 54.5028 47.329 53.0431C47.329 51.5834 46.1504 50.4 44.6965 50.4C43.2426 50.4 42.064 51.5834 42.064 53.0431C42.064 54.5028 43.2426 55.6862 44.6965 55.6862ZM95.4315 55.6862C96.8854 55.6862 98.064 54.5028 98.064 53.0431C98.064 51.5834 96.8854 50.4 95.4315 50.4C93.9777 50.4 92.7991 51.5834 92.7991 53.0431C92.7991 54.5028 93.9777 55.6862 95.4315 55.6862ZM112.662 55.6862C114.116 55.6862 115.295 54.5028 115.295 53.0431C115.295 51.5834 114.116 50.4 112.662 50.4C111.208 50.4 110.03 51.5834 110.03 53.0431C110.03 54.5028 111.208 55.6862 112.662 55.6862Z" fill="#F48332"/>
<path d="M7.28327 77.36C6.61906 76.3667 6.09554 75.2855 5.72771 74.1475C4.84224 71.4708 4.70703 68.7484 5.22395 65.978C6.05438 61.5401 8.1125 57.7929 11.4893 54.805C13.4038 53.1063 15.627 51.9577 18.1638 51.5288C21.02 51.0483 23.7087 51.6226 26.2383 52.9921C27.399 53.6205 28.4998 54.3437 29.4344 55.2904C30.954 56.8294 31.7653 58.6928 31.9472 60.8445C32.3995 66.1042 28.7571 70.792 23.4132 71.5957C21.7751 71.842 20.1657 71.7435 18.5407 71.5116C16.0829 71.1632 13.6251 71.0611 11.232 71.9417C9.48139 72.5869 8.15558 73.7066 7.59677 75.5579C7.43165 76.1034 7.39575 76.6884 7.28327 77.36Z" fill="#F48332"/>
<path d="M7.94857 78.0568C8.41883 75.7994 9.52447 74.1583 11.6735 73.3594C13.2291 72.7791 14.8576 72.6698 16.4969 72.8404C17.8993 72.9869 19.2934 73.2104 20.6922 73.387C22.4691 73.6117 24.1886 73.3149 25.8446 72.6962C26.7516 72.3562 27.6036 71.8648 28.4771 71.4384C28.5968 71.3795 28.7081 71.299 28.9187 71.1704C29.1269 72.1496 29.365 73.0518 29.505 73.9673C29.8795 76.4145 29.505 78.75 28.2821 80.9113C27.0592 83.0727 25.2834 84.5083 22.8472 85.073C21.4113 85.407 19.9993 85.2772 18.6197 84.7931C16.5999 84.083 14.8684 82.9465 13.594 81.1889C13.2142 80.6508 12.8902 80.0752 12.6272 79.4709C12.1199 78.3416 11.2691 77.8478 10.0617 77.9187C9.39284 77.9655 8.71917 78.0112 7.94857 78.0568ZM9.67643 86.9315C9.67643 87.131 9.6872 87.3316 9.67643 87.5322C9.63455 88.1978 9.07814 88.5558 8.45472 88.3191C8.04888 88.1772 7.74864 87.8296 7.66618 87.4061C7.54652 86.8414 7.47353 86.266 7.4113 85.6917C7.2725 84.4038 7.22224 83.1015 6.79746 81.8592C6.58327 81.2297 6.30447 80.6362 5.78156 80.1941C5.42322 79.8685 4.94711 79.7056 4.46532 79.7436C3.96515 79.7856 3.77489 79.9743 3.7019 80.4752C3.53797 81.6154 2.18703 82.2942 1.19746 81.7091C0.398142 81.2369 -0.0218584 80.5077 0.000876683 79.573C0.0236117 78.6383 0.381389 77.8454 1.23575 77.3937C2.04786 76.9369 3.01987 76.8652 3.88977 77.1978C5.18566 77.6784 6.18242 78.5482 7.00686 79.6307C8.61708 81.7342 9.54853 84.2816 9.67643 86.9315Z" fill="#94B63E"/>
</g>
<defs>
<clipPath id="clip0_237_63">
<rect width="140" height="140" fill="white"/>
</clipPath>
</defs>
</svg>
