<svg width="200" height="200" viewBox="0 0 200 200" fill="none" xmlns="http://www.w3.org/2000/svg">
<g clip-path="url(#clip0_106_493)">
<path d="M61.6299 126.234H65.9735V86.3618H61.6299V126.234ZM95.0316 126.234V81.9513C95.0316 74.1888 90.7444 72.8581 88.488 72.8581C86.1752 72.8581 84.8778 74.1149 83.806 75.1499L83.5606 74.9187C82.582 74.0048 81.2501 72.8964 79.2291 72.8591L79.0805 72.8581C78.2711 72.8618 72.6367 73.04 72.6367 81.9513V126.234H76.9803V81.9513C76.9803 78.8042 78.8048 78.5554 79.2792 78.5507L79.3409 78.551C79.7278 78.5591 81.6624 78.7207 81.6624 81.9513V126.234H86.006V81.9513C86.006 78.8042 87.7199 78.5554 88.3563 78.5507L88.3752 78.5506C89.3342 78.5506 90.688 79.0681 90.688 81.9513V126.234H95.0316ZM174.263 83.8423L182.549 126.234H178.205L176.677 118.168H171.773L170.245 126.234H165.902L174.188 83.8423H174.263ZM174.225 105.224L172.553 114.049H175.897L174.225 105.224ZM102.324 86.4064V117.035C102.324 124.261 104.819 127.415 109.375 127.426C113.932 127.436 116.41 124.261 116.426 117.112V86.4064H112.083L112.082 116.355C112.073 119.111 112.051 122.973 109.319 122.969C106.586 122.964 106.668 118.561 106.668 116.177V86.4064H102.324ZM126.917 126.234C128.948 122.61 129.456 118.815 129.456 116.436L129.455 116.248C129.427 113.379 128.752 111.35 126.866 107.281L126.804 107.148C124.943 103.126 124.774 101.427 124.774 99.3317C124.774 94.1777 127.03 89.5901 130.415 86.3618H124.491C121.784 90.0999 120.374 94.5742 120.374 99.2751C120.374 102.618 121.083 105.083 122.556 108.289L123.128 109.531C124.561 112.66 125.112 114.113 125.112 116.719C125.112 120.061 123.589 123.572 121.389 126.234H126.917ZM134.189 126.234H138.532V86.3618H134.189V126.234ZM150.603 126.234H156.921L156.55 125.912C153.448 123.205 147.105 117.333 147.105 106.241C147.105 94.9707 154.326 88.6273 156.921 86.3618H150.603C145.808 91.9123 142.762 98.8786 142.762 106.241C142.762 113.661 145.638 120.741 150.603 126.234ZM158.722 126.234H163.066V86.3618H158.722V126.234ZM190.432 126.234H186.088V84.2662L195.565 100.804V86.3618H199.965V126.234H195.565V108.733L190.432 100.181V126.234ZM63.8521 79.5516C65.9291 79.5516 67.6128 77.8611 67.6128 75.7758C67.6128 73.6905 65.9291 72 63.8521 72C61.7752 72 60.0915 73.6905 60.0915 75.7758C60.0915 77.8611 61.7752 79.5516 63.8521 79.5516ZM136.331 79.5516C138.408 79.5516 140.091 77.8611 140.091 75.7758C140.091 73.6905 138.408 72 136.331 72C134.254 72 132.57 73.6905 132.57 75.7758C132.57 77.8611 134.254 79.5516 136.331 79.5516ZM160.946 79.5516C163.023 79.5516 164.707 77.8611 164.707 75.7758C164.707 73.6905 163.023 72 160.946 72C158.869 72 157.185 73.6905 157.185 75.7758C157.185 77.8611 158.869 79.5516 160.946 79.5516Z" fill="#F48332"/>
<path d="M10.4047 110.514C9.4558 109.095 8.70791 107.551 8.18245 105.925C6.91749 102.101 6.72433 98.212 7.46279 94.2543C8.64912 87.9143 11.5893 82.5613 16.4132 78.2929C19.1483 75.8661 22.3243 74.2253 25.9483 73.6126C30.0286 72.9261 33.8696 73.7465 37.4833 75.703C39.1414 76.6006 40.7141 77.6338 42.0491 78.9863C44.2201 81.1848 45.379 83.8468 45.6389 86.9206C46.285 94.4345 41.0816 101.131 33.4474 102.28C31.1072 102.631 28.8081 102.491 26.4867 102.159C22.9756 101.662 19.4645 101.516 16.0457 102.774C13.5448 103.696 11.6508 105.295 10.8525 107.94C10.6166 108.719 10.5654 109.555 10.4047 110.514Z" fill="#F48332"/>
<path d="M11.3551 111.51C12.0269 108.285 13.6064 105.94 16.6765 104.799C18.8987 103.97 21.2252 103.814 23.5671 104.058C25.5705 104.267 27.5619 104.586 29.5602 104.839C32.0987 105.16 34.5551 104.736 36.9209 103.852C38.2166 103.366 39.4337 102.664 40.6816 102.055C40.8525 101.971 41.0115 101.856 41.3124 101.672C41.6098 103.071 41.95 104.36 42.15 105.668C42.685 109.164 42.15 112.5 40.403 115.588C38.656 118.675 36.1192 120.726 32.6389 121.533C30.5876 122.01 28.5705 121.825 26.5995 121.133C23.7141 120.119 21.2406 118.495 19.4201 115.984C18.8774 115.215 18.4146 114.393 18.0389 113.53C17.3141 111.916 16.0987 111.211 14.3739 111.312C13.4183 111.379 12.456 111.445 11.3551 111.51ZM13.8235 124.188C13.8235 124.473 13.8389 124.759 13.8235 125.046C13.7636 125.997 12.9688 126.508 12.0782 126.17C11.4984 125.967 11.0695 125.471 10.9517 124.866C10.7807 124.059 10.6765 123.237 10.5876 122.417C10.3893 120.577 10.3175 118.716 9.71065 116.942C9.40467 116.042 9.00638 115.195 8.25937 114.563C7.74746 114.098 7.06731 113.865 6.37903 113.919C5.6645 113.979 5.3927 114.249 5.28843 114.965C5.05424 116.593 3.12433 117.563 1.71065 116.727C0.568774 116.053 -0.0312262 115.011 0.0012524 113.676C0.033731 112.34 0.544842 111.208 1.76535 110.562C2.92552 109.91 4.31411 109.807 5.55681 110.283C7.40809 110.969 8.83202 112.212 10.0098 113.758C12.3101 116.763 13.6408 120.402 13.8235 124.188Z" fill="#94B63E"/>
</g>
<defs>
<clipPath id="clip0_106_493">
<rect width="200" height="200" fill="white"/>
</clipPath>
</defs>
</svg>
