<svg width="200" height="200" viewBox="0 0 200 200" fill="none" xmlns="http://www.w3.org/2000/svg">
<path d="M41.0862 80.6451H8.84034V119.29H41.0862V80.6451Z" fill="white"/>
<path fill-rule="evenodd" clip-rule="evenodd" d="M24.9081 75C4.39556 75 0 79.4118 0 100C0 120.588 4.39556 125 24.9081 125C45.4208 125 49.8164 120.588 49.8164 100C49.8164 79.4118 45.4208 75 24.9081 75ZM27.7286 87.25C29.2607 87.4128 30.7413 87.8989 32.0729 88.6765C34.1645 89.9669 35.6114 92.1544 35.6114 95.3345C35.6114 98.5147 34.1719 100.765 32.1353 102.162C30.8111 103.038 29.3099 103.608 27.7396 103.831V106.665H23.8386V103.978H21.1134V110.57H23.0328V114.478H15.3075V110.57H17.2306V91.0405H15.3075V87.1323H23.8496V84.6801H27.7396L27.7286 87.25ZM25.7836 100.073H21.1134V91.0405H25.7836C27.3844 91.0405 28.9447 91.3345 30.0364 92.0074C30.996 92.5992 31.7176 93.5367 31.7176 95.3345C31.7176 97.1324 30.985 98.2316 29.9411 98.9339C28.6945 99.7098 27.2501 100.106 25.7836 100.073Z" fill="url(#paint0_linear_106_459)"/>
<path d="M67.8183 89.2383H75.9713C82.1735 89.2383 85.2731 91.6629 85.2701 96.5121C85.2671 101.361 82.1675 103.786 75.9713 103.786H72.4337V110.878H67.8138L67.8183 89.2383ZM80.5369 96.5121C80.5369 94.3905 79.0799 93.3298 76.166 93.3298H72.4337V99.6944H76.1615C79.0784 99.6883 80.5369 98.6245 80.5369 96.503V96.5121Z" fill="black"/>
<path d="M88.6979 109.242C87.1156 107.86 86.3245 105.932 86.3245 103.459C86.3245 100.986 87.1156 99.0643 88.6979 97.6944C90.336 96.3564 92.3835 95.6259 94.4955 95.6259C96.6076 95.6259 98.655 96.3564 100.293 97.6944C101.866 99.0764 102.651 101.004 102.648 103.477C102.646 105.95 101.86 107.878 100.293 109.26C98.655 110.598 96.6076 111.328 94.4955 111.328C92.3835 111.328 90.336 110.598 88.6979 109.26V109.242ZM97.3038 106.35C97.9635 105.532 98.3234 104.511 98.3234 103.459C98.3234 102.406 97.9635 101.386 97.3038 100.568C96.9468 100.187 96.5114 99.8889 96.028 99.6941C95.5446 99.4994 95.0247 99.4128 94.5046 99.44C93.9856 99.4113 93.4668 99.4974 92.9846 99.6921C92.5024 99.887 92.0689 100.186 91.7145 100.568C91.0664 101.391 90.7139 102.41 90.7139 103.459C90.7139 104.508 91.0664 105.527 91.7145 106.35C92.0689 106.732 92.5024 107.031 92.9846 107.225C93.4668 107.42 93.9856 107.506 94.5046 107.478C95.0239 107.501 95.542 107.41 96.023 107.212C96.5039 107.014 96.9364 106.714 97.2903 106.332L97.3038 106.35Z" fill="black"/>
<path d="M110.136 91.1249C110.16 91.462 110.109 91.8001 109.986 92.1147C109.863 92.4293 109.671 92.7124 109.425 92.9434C108.919 93.368 108.273 93.5884 107.614 93.5616C106.963 93.5859 106.326 93.3655 105.829 92.9434C105.583 92.7124 105.392 92.4293 105.269 92.1147C105.146 91.8001 105.094 91.462 105.118 91.1249C105.098 90.7915 105.151 90.4579 105.274 90.1475C105.397 89.8371 105.586 89.5578 105.829 89.3293C106.327 88.909 106.963 88.6889 107.614 88.7109C108.272 88.6898 108.916 88.9095 109.425 89.3293C109.671 89.5557 109.862 89.8348 109.985 90.1456C110.108 90.4565 110.16 90.7913 110.136 91.1249ZM109.765 110.878H105.498V96.0392H109.779L109.765 110.878Z" fill="black"/>
<path d="M117.275 97.9259C117.87 97.1923 118.622 96.6029 119.475 96.2014C120.328 95.8 121.261 95.5969 122.203 95.6074C124.09 95.6074 125.562 96.1786 126.619 97.3213C127.698 98.5153 128.268 100.085 128.209 101.695V110.878H123.924V102.24C123.954 101.84 123.9 101.437 123.765 101.059C123.63 100.681 123.417 100.335 123.141 100.044C122.571 99.5333 121.825 99.2671 121.062 99.3034C119.725 99.3034 118.629 99.9308 117.764 101.19V110.878H113.484V96.0393H117.275V97.9259Z" fill="black"/>
<path d="M132.62 91.7114L136.869 90.693V96.0392H141.552V99.6761H136.869V105.468C136.869 106.95 137.661 107.695 139.242 107.695C140.157 107.699 141.065 107.531 141.919 107.2V110.66C140.641 111.102 139.299 111.322 137.946 111.31C136.569 111.371 135.213 110.945 134.115 110.105C133.119 109.299 132.62 108.032 132.62 106.304V99.658H130.125V96.0211H132.62V91.7114Z" fill="black"/>
<path d="M144.875 89.2383H153.006C159.207 89.2383 162.309 91.6629 162.309 96.5121C162.309 101.361 159.207 103.786 153.006 103.786H149.495V110.878H144.875V89.2383ZM157.599 96.5121C157.599 94.3905 156.14 93.3298 153.224 93.3298H149.495V99.6944H153.224C156.131 99.6883 157.585 98.6245 157.585 96.503L157.599 96.5121Z" fill="black"/>
<path d="M176.019 108.714C174.763 110.46 172.976 111.333 170.66 111.333C168.423 111.333 166.656 110.566 165.361 109.032C164.106 107.456 163.423 105.499 163.423 103.481C163.423 101.464 164.106 99.5065 165.361 97.9305C166.656 96.397 168.423 95.6302 170.66 95.6302C172.98 95.6302 174.765 96.4955 176.019 98.226V96.0621H179.783V110.878H176.024L176.019 108.714ZM168.84 100.444C168.163 101.302 167.794 102.364 167.794 103.459C167.794 104.553 168.163 105.615 168.84 106.473C169.19 106.877 169.628 107.197 170.119 107.409C170.609 107.621 171.141 107.719 171.675 107.696C172.515 107.709 173.339 107.46 174.03 106.982C174.685 106.549 175.203 105.939 175.525 105.222V101.695C175.203 100.978 174.685 100.368 174.03 99.9354C173.337 99.4596 172.515 99.2104 171.675 99.2216C171.141 99.1985 170.609 99.2965 170.119 99.5082C169.628 99.7199 169.19 100.04 168.84 100.444Z" fill="black"/>
<path d="M190.522 106.054L194.186 96.0527H198.621L192.062 112.682C190.604 116.292 188.477 118.095 185.685 118.092C184.905 118.066 184.13 117.953 183.375 117.756V114.201C183.952 114.331 184.541 114.402 185.132 114.415C186.69 114.415 187.86 113.333 188.642 111.169L188.674 111.11L181.681 96.0391H186.21L190.522 106.054Z" fill="black"/>
<defs>
<linearGradient id="paint0_linear_106_459" x1="99.3104" y1="75" x2="99.3104" y2="125" gradientUnits="userSpaceOnUse">
<stop stop-color="#5CC6F6"/>
<stop offset="1" stop-color="#007AFF"/>
</linearGradient>
</defs>
</svg>
