<svg width="140" height="140" viewBox="0 0 140 140" fill="none" xmlns="http://www.w3.org/2000/svg">
<path d="M28.7603 56.4516H6.18824V83.5027H28.7603V56.4516Z" fill="white"/>
<path fill-rule="evenodd" clip-rule="evenodd" d="M17.4357 52.5C3.07689 52.5 0 55.5882 0 70C0 84.4118 3.07689 87.5 17.4357 87.5C31.7945 87.5 34.8715 84.4118 34.8715 70C34.8715 55.5882 31.7945 52.5 17.4357 52.5ZM19.41 61.075C20.4825 61.1889 21.5189 61.5292 22.451 62.0736C23.9152 62.9768 24.928 64.5081 24.928 66.7341C24.928 68.9603 23.9203 70.5353 22.4947 71.5132C21.5678 72.1264 20.5169 72.5255 19.4177 72.6816V74.6658H16.687V72.7846H14.7794V77.3989H16.1229V80.1346H10.7153V77.3989H12.0614V63.7284H10.7153V60.9926H16.6947V59.2761H19.4177L19.41 61.075ZM18.0485 70.0514H14.7794V63.7284H18.0485C19.1691 63.7284 20.2613 63.9341 21.0255 64.4052C21.6972 64.8195 22.2023 65.4757 22.2023 66.7341C22.2023 67.9927 21.6895 68.7621 20.9588 69.2537C20.0861 69.7968 19.0751 70.0739 18.0485 70.0514Z" fill="url(#paint0_linear_237_51)"/>
<path d="M47.4728 62.4668H53.1799C57.5215 62.4668 59.6912 64.164 59.6891 67.5585C59.687 70.9529 57.5173 72.6501 53.1799 72.6501H50.7036V77.6144H47.4696L47.4728 62.4668ZM56.3758 67.5585C56.3758 66.0733 55.3559 65.3308 53.3162 65.3308H50.7036V69.7861H53.313C55.3549 69.7818 56.3758 69.0371 56.3758 67.5521V67.5585Z" fill="#1E1E1E"/>
<path d="M62.0885 76.4691C60.9809 75.5017 60.4271 74.1523 60.4271 72.4211C60.4271 70.69 60.9809 69.345 62.0885 68.3861C63.2352 67.4495 64.6684 66.9381 66.1468 66.9381C67.6253 66.9381 69.0585 67.4495 70.2053 68.3861C71.3065 69.3535 71.856 70.7027 71.8539 72.4339C71.8518 74.1651 71.3023 75.5143 70.2053 76.4817C69.0585 77.4183 67.6253 77.9296 66.1468 77.9296C64.6684 77.9296 63.2352 77.4183 62.0885 76.4817V76.4691ZM68.1126 74.4451C68.5745 73.8724 68.8264 73.158 68.8264 72.4211C68.8264 71.6844 68.5745 70.9699 68.1126 70.3973C67.8627 70.1308 67.558 69.9222 67.2196 69.7859C66.8812 69.6496 66.5173 69.5889 66.1532 69.608C65.7899 69.5879 65.4267 69.6482 65.0892 69.7845C64.7517 69.9209 64.4482 70.1301 64.2001 70.3973C63.7465 70.9736 63.4997 71.6867 63.4997 72.4211C63.4997 73.1557 63.7465 73.8687 64.2001 74.4451C64.4482 74.7122 64.7517 74.9214 65.0892 75.0578C65.4267 75.1942 65.7899 75.2545 66.1532 75.2343C66.5167 75.2504 66.8794 75.187 67.2161 75.0486C67.5527 74.9101 67.8555 74.6998 68.1032 74.4324L68.1126 74.4451Z" fill="#1E1E1E"/>
<path d="M77.0955 63.7874C77.1121 64.0234 77.076 64.2601 76.9899 64.4803C76.9038 64.7005 76.7698 64.8987 76.5978 65.0604C76.2432 65.3576 75.7911 65.5119 75.3295 65.4931C74.8739 65.5101 74.4285 65.3558 74.0803 65.0604C73.9083 64.8987 73.7743 64.7005 73.6882 64.4803C73.6021 64.2601 73.566 64.0234 73.5825 63.7874C73.5683 63.5541 73.6057 63.3205 73.6917 63.1032C73.7777 62.886 73.9104 62.6904 74.0803 62.5305C74.4292 62.2363 74.8742 62.0822 75.3295 62.0976C75.7906 62.0828 76.2413 62.2367 76.5978 62.5305C76.7694 62.689 76.9033 62.8843 76.9895 63.1019C77.0757 63.3195 77.1119 63.5539 77.0955 63.7874ZM76.8356 77.6144H73.8489V67.2275H76.845L76.8356 77.6144Z" fill="#1E1E1E"/>
<path d="M82.0925 68.5481C82.5088 68.0346 83.0352 67.622 83.6325 67.341C84.2298 67.06 84.8825 66.9178 85.5421 66.9252C86.8632 66.9252 87.8937 67.325 88.6331 68.1249C89.3882 68.9607 89.7873 70.0592 89.7461 71.1862V77.6144H86.7469V71.5681C86.7678 71.2877 86.7298 71.0059 86.6353 70.7411C86.5408 70.4764 86.392 70.2344 86.1984 70.0311C85.7999 69.6733 85.2772 69.487 84.7431 69.5124C83.8078 69.5124 83.0405 69.9515 82.4349 70.833V77.6144H79.4387V67.2275H82.0925V68.5481Z" fill="#1E1E1E"/>
<path d="M92.834 64.198L95.8081 63.4851V67.2275H99.0867V69.7733H95.8081V73.8276C95.8081 74.865 96.3629 75.3868 97.4697 75.3868C98.1102 75.3894 98.7455 75.2717 99.3431 75.04V77.4617C98.4489 77.7715 97.5091 77.9254 96.5624 77.9168C95.5981 77.9598 94.6488 77.6613 93.8805 77.0735C93.1831 76.5091 92.834 75.6224 92.834 74.4131V69.7606H91.0875V67.2148H92.834V64.198Z" fill="#1E1E1E"/>
<path d="M101.412 62.4668H107.104C111.445 62.4668 113.616 64.164 113.616 67.5585C113.616 70.9529 111.445 72.6501 107.104 72.6501H104.646V77.6144H101.412V62.4668ZM110.319 67.5585C110.319 66.0733 109.298 65.3308 107.257 65.3308H104.646V69.7861H107.257C109.292 69.7818 110.309 69.0371 110.309 67.5521L110.319 67.5585Z" fill="#1E1E1E"/>
<path d="M123.213 76.0997C122.334 77.3217 121.083 77.9327 119.462 77.9327C117.896 77.9327 116.659 77.396 115.753 76.3225C114.874 75.2193 114.396 73.8491 114.396 72.437C114.396 71.0248 114.874 69.6545 115.753 68.5513C116.659 67.4779 117.896 66.9412 119.462 66.9412C121.086 66.9412 122.336 67.5468 123.213 68.7582V67.2435H125.848V77.6145H123.217L123.213 76.0997ZM118.188 70.3111C117.714 70.9114 117.456 71.655 117.456 72.421C117.456 73.1871 117.714 73.9307 118.188 74.5308C118.433 74.8141 118.739 75.0381 119.083 75.1863C119.426 75.3345 119.799 75.403 120.173 75.3869C120.761 75.3965 121.337 75.2218 121.821 74.8873C122.279 74.5846 122.642 74.1576 122.868 73.6557V71.1863C122.642 70.6845 122.279 70.2573 121.821 69.9548C121.336 69.6217 120.761 69.4473 120.173 69.4551C119.799 69.4389 119.426 69.5075 119.083 69.6558C118.739 69.8039 118.433 70.028 118.188 70.3111Z" fill="#1E1E1E"/>
<path d="M133.366 74.238L135.93 67.2369H139.035L134.444 78.8777C133.423 81.4045 131.934 82.6668 129.979 82.6647C129.433 82.646 128.891 82.567 128.362 82.4292V79.9406C128.767 80.0314 129.179 80.0816 129.593 80.0902C130.683 80.0902 131.502 79.3328 132.05 77.818L132.072 77.7767L127.177 67.2274H130.347L133.366 74.238Z" fill="#1E1E1E"/>
<defs>
<linearGradient id="paint0_linear_237_51" x1="69.5173" y1="52.5" x2="69.5173" y2="87.5" gradientUnits="userSpaceOnUse">
<stop stop-color="#5CC6F6"/>
<stop offset="1" stop-color="#007AFF"/>
</linearGradient>
</defs>
</svg>
