<svg width="200" height="200" viewBox="0 0 200 200" fill="none" xmlns="http://www.w3.org/2000/svg">
<path d="M130.24 25.8997C121.359 20.611 107.388 16.1205 96.1121 14.8233C86.5324 13.7256 86.2331 13.7256 76.853 14.8233C68.0716 15.9209 49.9102 21.0101 49.9102 22.5069C49.9102 22.7065 51.9059 23.7044 54.3009 24.8021C58.6915 26.5983 58.7913 26.5983 65.078 24.5027C70.267 22.8063 73.8593 22.4072 86.3329 22.4072C99.4051 22.3074 102.299 22.6067 108.785 24.6025C116.469 27.0972 126.248 31.5877 131.138 35.0803C132.446 35.9957 133.182 36.5113 133.821 36.4105C134.646 36.2807 135.308 35.1269 136.826 32.4858C136.926 32.3081 137.022 32.1477 137.111 32.0008C137.395 31.527 137.595 31.1931 137.581 30.8688C137.547 30.0955 136.293 29.3758 132.05 26.9406C131.499 26.624 130.896 26.2783 130.24 25.8997Z" fill="#4285F4"/>
<path fill-rule="evenodd" clip-rule="evenodd" d="M198.195 41.9656C195.9 35.0803 188.217 26.698 180.932 23.2055C174.146 19.8127 162.771 19.0144 155.586 21.3095C132.235 28.7936 124.153 57.832 140.318 75.694C156.983 94.1548 185.822 90.1633 196.798 67.9106C199.493 62.522 199.992 60.3267 199.992 54.3394C200.091 50.0485 199.293 45.1589 198.195 41.9656ZM155.187 30.1906C149.1 32.9847 143.611 38.8722 141.216 45.1589C139.121 50.6472 139.52 59.5284 142.214 64.8171C146.505 73.1993 156.584 79.6856 165.565 79.6856C183.127 79.6856 196.1 63.1207 191.31 46.6557C186.82 31.3881 169.556 23.405 155.187 30.1906Z" fill="#4285F4"/>
<path d="M71.4644 50.3478C70.1672 39.2714 62.6831 29.6917 52.2053 25.8C26.5597 16.2203 1.71249 41.6663 13.4875 65.3161C15.2837 68.7089 17.5788 71.8023 19.1754 72.7004C21.6701 73.9976 22.0693 73.9976 24.6638 72.1017C29.4536 68.5093 28.7551 58.73 23.7657 60.0273C20.772 60.8256 18.6765 56.5347 19.1754 50.747C19.7741 44.2608 23.5661 38.6726 29.6532 35.0803C33.6447 32.7851 35.5407 32.2862 40.9292 32.2862C54.3009 32.386 62.8826 40.868 62.8826 53.9402C62.8826 65.3161 56.1968 72.9 38.3347 81.5815C20.8718 90.0635 14.0862 97.7472 12.4896 111.119C10.893 123.692 19.0756 133.97 23.8655 125.389C25.2625 122.894 25.2625 122.495 23.2667 119.701C21.5703 117.505 21.3708 116.607 22.2689 115.809C26.5597 112.416 32.2477 114.112 40.6299 121.297C49.9102 129.18 56.4962 129.879 62.0843 123.692C68.7701 116.308 68.371 101.639 61.3858 97.0487C58.9909 95.4521 58.3922 95.4521 56.097 96.7493C50.1098 100.042 51.7064 109.522 57.993 108.125C60.5875 107.526 60.8869 107.726 60.8869 110.121C60.8869 112.715 56.9951 117.605 54.8996 117.605C52.9038 117.605 48.4134 114.811 45.9186 112.117C42.2265 108.025 34.9419 103.635 31.8485 103.635C28.3559 103.635 24.7636 105.032 22.668 107.127C21.0714 108.624 20.9716 108.624 20.9716 107.127C20.9716 101.24 27.0587 96.3502 42.7254 89.6644C48.0142 87.3693 54.5004 83.9765 57.0949 82.0805C66.3752 75.3947 72.7617 61.2248 71.4644 50.3478Z" fill="#4285F4"/>
<path d="M125.749 63.4201C125.749 59.4286 125.15 57.333 123.654 55.3373C120.76 51.6451 118.365 52.0442 112.877 57.2332C110.082 59.9275 107.089 61.7237 105.792 61.7237C104.494 61.7237 102.698 62.4222 101.8 63.2205C100.403 64.418 99.3053 64.5178 94.6153 63.5199C88.2288 62.2226 84.4369 63.2205 83.6386 66.5135C82.4411 70.8044 89.7257 81.6813 93.6174 81.6813C94.4157 81.6813 96.9104 80.1845 99.1057 78.4881C101.401 76.6919 104.494 75.1951 105.991 75.0953C107.588 74.9955 109.584 74.297 110.482 73.5985C111.479 72.7004 113.974 72.3012 117.866 72.5008C124.751 72.9 125.749 71.8023 125.749 63.4201Z" fill="#4285F4"/>
<path d="M20.0735 143.251C7.00126 124.191 3.70825 99.0445 11.1924 75.694L13.2879 69.108L11.1924 65.2163L9.1966 61.2248L7.00126 66.1144C0.415241 80.6834 -1.7801 100.841 1.51291 116.707C7.99914 149.038 32.7466 174.883 65.3773 183.565C75.7553 186.359 95.9125 186.559 106.091 184.164C126.747 179.075 144.909 167.1 157.482 150.036C163.17 142.253 166.762 135.068 170.155 124.59C172.55 117.206 172.949 114.412 173.049 102.637L173.149 89.1654H166.163L166.463 96.2504C167.56 117.106 159.677 138.062 144.909 153.728C129.142 170.393 110.082 178.576 86.8318 178.576C59.5896 178.675 35.5407 165.903 20.0735 143.251Z" fill="#4285F4"/>
<path d="M80.8445 107.127C80.8445 80.4839 80.5451 70.8044 79.647 69.9063C77.8509 68.1101 77.4517 68.3097 70.6661 73.9976C67.1735 76.8915 62.6831 80.5837 60.5875 82.1803C55.7977 85.7726 54.5004 88.0678 55.8975 90.6623C57.2945 93.3565 59.6894 93.157 62.7828 90.2631C64.2797 88.9659 66.5748 87.1697 68.0716 86.1718C69.5328 85.3059 70.2015 84.9096 70.6031 85.0943C70.942 85.2502 71.0906 85.8198 71.3646 86.8703C71.664 88.1676 71.8636 101.639 71.664 116.807C71.4644 138.261 71.0653 144.648 69.9676 145.845C68.9697 147.043 66.974 147.542 62.9824 147.542C59.889 147.542 56.7956 148.04 56.097 148.739C54.5004 150.336 54.6002 154.028 56.1968 155.225C56.7956 155.724 65.8763 156.024 76.2542 156.024C94.2161 155.824 95.3138 155.724 96.611 153.728C97.6089 152.132 97.7087 151.234 96.8106 149.637C95.9125 147.841 94.8148 147.542 89.8254 147.542C89.4431 147.542 89.077 147.545 88.7265 147.547L88.7232 147.547C86.5997 147.565 85.0473 147.577 83.9128 146.895C80.8299 145.041 80.8327 138.056 80.8432 112.087C80.8438 110.505 80.8445 108.853 80.8445 107.127Z" fill="#4285F4"/>
<path fill-rule="evenodd" clip-rule="evenodd" d="M149.199 124.291C158.081 106.03 151.095 86.2716 132.934 77.8894C126.847 75.0953 116.768 74.0974 110.482 75.694C101.102 78.089 92.9189 84.675 88.129 93.8555C85.6343 98.5455 85.335 100.142 85.335 108.624C85.335 117.106 85.6343 118.703 88.129 123.393C91.8212 130.378 97.2098 135.667 104.395 139.159C109.484 141.654 111.479 142.053 118.764 142.053C125.849 142.053 128.144 141.654 132.834 139.459C140.318 135.966 146.106 130.578 149.199 124.291ZM93.0187 106.728C93.817 96.3502 98.507 89.6644 108.286 85.0741C114.174 82.28 121.359 81.9807 127.845 84.176C142.414 89.1654 149.199 105.93 142.314 120C137.524 129.879 128.044 135.168 116.968 134.369C109.983 133.871 104.494 131.276 99.7045 126.287C94.3159 120.798 92.4199 115.21 93.0187 106.728Z" fill="#4285F4"/>
</svg>
