<svg width="140" height="140" viewBox="0 0 140 140" fill="none" xmlns="http://www.w3.org/2000/svg">
<path d="M91.1678 18.1299C84.951 14.4277 75.1717 11.2844 67.2785 10.3763C60.5727 9.60796 60.3631 9.60796 53.7971 10.3763C47.6501 11.1447 34.9371 14.7071 34.9371 15.7549C34.9371 15.8946 36.3342 16.5931 38.0106 17.3615C41.0841 18.6188 41.1539 18.6188 45.5546 17.1519C49.1869 15.9645 51.7015 15.6851 60.433 15.6851C69.5836 15.6152 71.6093 15.8248 76.1496 17.2218C81.5282 18.9681 88.3737 22.1114 91.7964 24.5562C92.7119 25.1971 93.2275 25.5579 93.675 25.4874C94.2519 25.3965 94.7159 24.5889 95.778 22.7401C95.8483 22.6157 95.9156 22.5035 95.9774 22.4006C96.1765 22.0689 96.3167 21.8352 96.3068 21.6082C96.2829 21.0669 95.4053 20.5631 92.4352 18.8585C92.049 18.6368 91.6274 18.3949 91.1678 18.1299Z" fill="#4285F4"/>
<path fill-rule="evenodd" clip-rule="evenodd" d="M138.737 29.376C137.13 24.5562 131.752 18.6887 126.652 16.2439C121.903 13.8689 113.939 13.3101 108.91 14.9167C92.5648 20.1556 86.9068 40.4824 98.2228 52.9859C109.888 65.9084 130.075 63.1144 137.759 47.5374C139.645 43.7654 139.994 42.2287 139.994 38.0376C140.064 35.034 139.505 31.6112 138.737 29.376ZM108.631 21.1335C104.37 23.0893 100.528 27.2106 98.8515 31.6113C97.3846 35.4531 97.664 41.6699 99.55 45.372C102.554 51.2396 109.609 55.7799 115.895 55.7799C128.189 55.7799 137.27 44.1846 133.917 32.659C130.774 21.9717 118.689 16.3836 108.631 21.1335Z" fill="#4285F4"/>
<path d="M50.0251 35.2435C49.117 27.49 43.8781 20.7842 36.5437 18.06C18.5918 11.3542 1.19874 29.1664 9.44124 45.7213C10.6986 48.0963 12.3052 50.2617 13.4228 50.8903C15.1691 51.7984 15.4485 51.7984 17.2646 50.4712C20.6175 47.9566 20.1286 41.1111 16.636 42.0192C14.5404 42.578 13.0735 39.5743 13.4228 35.5229C13.8419 30.9826 16.4963 27.0709 20.7572 24.5562C23.5513 22.9496 24.8785 22.6004 28.6505 22.6004C38.0106 22.6702 44.0178 28.6076 44.0178 37.7582C44.0178 45.7213 39.3378 51.03 26.8343 57.1071C14.6103 63.0445 9.86035 68.4231 8.74273 77.7832C7.6251 86.5845 13.3529 93.7793 16.7058 87.772C17.6837 86.0257 17.6837 85.7463 16.2867 83.7905C15.0992 82.2537 14.9595 81.6251 15.5882 81.0663C18.5918 78.6913 22.5734 79.8788 28.4409 84.9081C34.9371 90.4264 39.5473 90.9154 43.459 86.5845C48.1391 81.4155 47.8597 71.1473 42.9701 67.9341C41.2936 66.8165 40.8745 66.8165 39.2679 67.7246C35.0768 70.0297 36.1945 76.6656 40.5951 75.6877C42.4113 75.2686 42.6208 75.4083 42.6208 77.0847C42.6208 78.9009 39.8966 82.3236 38.4297 82.3236C37.0327 82.3236 33.8893 80.3677 32.1431 78.4818C29.5585 75.6178 24.4594 72.5444 22.294 72.5444C19.8492 72.5444 17.3345 73.5223 15.8676 74.9892C14.75 76.0369 14.6801 76.0369 14.6801 74.9892C14.6801 70.8679 18.9411 67.4452 29.9078 62.7651C33.6099 61.1585 38.1503 58.7836 39.9664 57.4564C46.4627 52.7763 50.9332 42.8574 50.0251 35.2435Z" fill="#4285F4"/>
<path d="M88.0244 44.3941C88.0244 41.6 87.6053 40.1332 86.5575 38.7361C84.5318 36.1516 82.8554 36.431 79.0136 40.0633C77.0577 41.9493 74.9622 43.2066 74.0541 43.2066C73.146 43.2066 71.8887 43.6956 71.26 44.2544C70.2821 45.0926 69.5137 45.1625 66.2307 44.464C61.7602 43.5559 59.1058 44.2544 58.547 46.5595C57.7088 49.5631 62.808 57.177 65.5322 57.177C66.091 57.177 67.8373 56.1292 69.374 54.9417C70.9806 53.6844 73.146 52.6366 74.1938 52.5668C75.3114 52.4969 76.7085 52.008 77.3371 51.519C78.0356 50.8903 79.7819 50.6109 82.5061 50.7506C87.3259 51.03 88.0244 50.2617 88.0244 44.3941Z" fill="#4285F4"/>
<path d="M14.0515 100.275C4.90088 86.9338 2.59578 69.3312 7.83465 52.9859L9.30154 48.3757L7.83465 45.6514L6.43762 42.8574L4.90088 46.2801C0.290669 56.4785 -1.24607 70.5885 1.05904 81.6949C5.5994 104.327 22.9226 122.418 45.7641 128.496C53.0287 130.451 67.1388 130.591 74.2636 128.915C88.7229 125.352 101.436 116.97 110.237 105.025C114.219 99.577 116.733 94.5476 119.108 87.2132C120.785 82.0442 121.064 80.0883 121.134 71.8458L121.204 62.4159H116.314L116.524 67.3753C117.292 81.9743 111.774 96.6432 101.436 107.61C90.3994 119.275 77.0577 125.003 60.7823 125.003C41.7127 125.073 24.8785 116.132 14.0515 100.275Z" fill="#4285F4"/>
<path d="M56.5912 74.9892C56.5912 56.3388 56.3816 49.5631 55.7529 48.9345C54.4956 47.6771 54.2162 47.8168 49.4663 51.7984C47.0215 53.8241 43.8781 56.4086 42.4113 57.5262C39.0584 60.0409 38.1503 61.6475 39.1282 63.4636C40.1061 65.3496 41.7826 65.2099 43.948 63.1842C44.9958 62.2762 46.6024 61.0188 47.6501 60.3203C48.6729 59.7142 49.1411 59.4368 49.4222 59.5661C49.6594 59.6752 49.7634 60.0739 49.9552 60.8093C50.1648 61.7173 50.3045 71.1473 50.1648 81.7648C50.0251 96.7829 49.7457 101.253 48.9773 102.092C48.2788 102.93 46.8818 103.279 44.0877 103.279C41.9223 103.279 39.7569 103.628 39.2679 104.117C38.1503 105.235 38.2202 107.819 39.3378 108.658C39.7569 109.007 46.1134 109.217 53.378 109.217C65.9513 109.077 66.7197 109.007 67.6277 107.61C68.3262 106.492 68.3961 105.864 67.7674 104.746C67.1388 103.489 66.3704 103.279 62.8778 103.279C62.6102 103.279 62.3539 103.281 62.1085 103.283L62.1063 103.283C60.6198 103.295 59.5331 103.304 58.739 102.827C56.5809 101.529 56.5829 96.6392 56.5902 78.4611C56.5907 77.3539 56.5912 76.1973 56.5912 74.9892Z" fill="#4285F4"/>
<path fill-rule="evenodd" clip-rule="evenodd" d="M104.44 87.0037C110.656 74.2208 105.767 60.3902 93.0538 54.5226C88.7928 52.5668 81.7378 51.8682 77.3371 52.9859C70.7711 54.6623 65.0432 59.2725 61.6903 65.6989C59.944 68.9819 59.7345 70.0995 59.7345 76.0369C59.7345 81.9743 59.944 83.092 61.6903 86.375C64.2748 91.2646 68.0468 94.9668 73.0762 97.4116C76.6386 99.1579 78.0356 99.4373 83.1348 99.4373C88.0943 99.4373 89.7009 99.1579 92.9839 97.6211C98.2228 95.1763 102.274 91.4043 104.44 87.0037ZM65.1131 74.7098C65.6719 67.4452 68.9549 62.7651 75.8004 59.5519C79.9216 57.5961 84.951 57.3865 89.4913 58.9233C99.6897 62.4158 104.44 74.1509 99.6198 84C96.2669 90.9153 89.631 94.6175 81.8775 94.0587C76.9879 93.7094 73.146 91.8933 69.7931 88.4007C66.0211 84.5588 64.6939 80.6471 65.1131 74.7098Z" fill="#4285F4"/>
</svg>
