<svg width="80" height="21" viewBox="0 0 80 21" fill="none" xmlns="http://www.w3.org/2000/svg">
<path opacity="0.5" fill-rule="evenodd" clip-rule="evenodd" d="M41.8651 20.4753C40.9768 20.8093 39.9491 21.0332 39.0008 20.9957C38.7187 20.9846 38.4271 20.9262 38.1339 20.8159L2.26934 7.32531C0.74046 6.75022 -0.250678 4.98331 0.055575 3.37881C0.361828 1.7743 1.8495 0.939805 3.37838 1.5149L39.243 15.0055C39.5678 15.1276 39.9384 15.0967 40.2356 14.9176C40.4005 14.8181 40.5743 14.7331 40.7557 14.6649L76.6217 1.17815C78.1506 0.60322 79.6384 1.43784 79.9447 3.04232C80.2511 4.6468 79.26 6.41356 77.731 6.98849L41.8651 20.4753Z" fill="#1E1E1E"/>
</svg>
