<svg width="1783" height="883" viewBox="0 0 1783 883" fill="none" xmlns="http://www.w3.org/2000/svg">
<rect width="280" height="250" rx="22" transform="matrix(1 0 -0.213371 0.976971 1484.34 151)" fill="#4274FF" fill-opacity="0.3"/>
<path fill-rule="evenodd" clip-rule="evenodd" d="M219 847.981H1718.84V840H219V847.981Z" fill="#1E1E1E"/>
<path d="M1294.53 94.8822H1476.61L1434.11 290.176H1579" stroke="#1E1E1E" stroke-width="5" stroke-linecap="round" stroke-linejoin="round" stroke-dasharray="10 10"/>
<path d="M724.313 89.6943H598.45L560 274" stroke="#1E1E1E" stroke-width="5" stroke-linecap="round" stroke-linejoin="round" stroke-dasharray="10 10"/>
<path fill-rule="evenodd" clip-rule="evenodd" d="M726.919 75.1367H1297.93L1208.91 592.64H637.897L726.919 75.1367Z" fill="#4274FF" fill-opacity="0.3"/>
<path fill-rule="evenodd" clip-rule="evenodd" d="M811.072 101.904C804.054 101.904 798.002 106.834 796.584 113.707V113.707C794.691 122.886 801.7 131.489 811.072 131.489H1187.8C1194.73 131.489 1200.73 126.674 1202.24 119.906V119.906C1204.29 110.667 1197.26 101.904 1187.8 101.904H811.072Z" fill="white"/>
<path fill-rule="evenodd" clip-rule="evenodd" d="M1014.03 194.539V194.539C1012.66 201.534 1018.02 208.034 1025.15 208.034H1237.94C1243.28 208.034 1247.89 204.31 1249.02 199.092C1250.54 192.036 1245.16 185.376 1237.94 185.376H1025.15C1019.72 185.376 1015.06 189.217 1014.03 194.539" fill="#1E1E1E"/>
<path fill-rule="evenodd" clip-rule="evenodd" d="M1008.74 226.942V226.942C1007.38 233.936 1012.74 240.437 1019.86 240.437H1232.66C1238 240.437 1242.61 236.712 1243.74 231.495C1245.26 224.439 1239.88 217.779 1232.66 217.779H1019.86C1014.44 217.779 1009.78 221.62 1008.74 226.942" fill="#1E1E1E"/>
<path fill-rule="evenodd" clip-rule="evenodd" d="M1003.46 259.344V259.344C1002.1 266.339 1007.45 272.839 1014.58 272.839H1227.38C1232.71 272.839 1237.33 269.115 1238.45 263.898C1239.97 256.841 1234.6 250.181 1227.38 250.181H1014.58C1009.16 250.181 1004.5 254.022 1003.46 259.344" fill="#1E1E1E"/>
<path fill-rule="evenodd" clip-rule="evenodd" d="M748.18 171.285L729.106 277.948C727.967 284.322 732.866 290.176 739.341 290.176H966.15C971.172 290.176 975.477 286.586 976.379 281.645L995.845 174.982C997.01 168.598 992.106 162.718 985.616 162.718H758.415C753.379 162.718 749.066 166.327 748.18 171.285" fill="white"/>
<path fill-rule="evenodd" clip-rule="evenodd" d="M756.707 265.326C756.707 265.326 778.074 228.602 796.623 219.305C815.172 210.008 844.757 264.152 866.124 259.221C887.491 254.29 909.328 201.93 932.104 216.253C954.88 230.576 957.228 267.674 957.228 267.674L756.707 265.326Z" fill="#80BAFF"/>
<path fill-rule="evenodd" clip-rule="evenodd" d="M886.855 203.947C886.855 210.95 881.178 216.626 874.176 216.626C867.173 216.626 861.496 210.95 861.496 203.947C861.496 196.944 867.173 191.268 874.176 191.268C881.178 191.268 886.855 196.944 886.855 203.947" fill="#FFE2B8"/>
<path fill-rule="evenodd" clip-rule="evenodd" d="M724.101 339.585L713.201 403.858C712.493 408.034 715.711 411.843 719.945 411.843H830.074C833.398 411.843 836.24 409.453 836.812 406.178L848.03 341.905C848.76 337.72 845.539 333.888 841.291 333.888H730.845C727.508 333.888 724.658 336.296 724.101 339.585" fill="white"/>
<path fill-rule="evenodd" clip-rule="evenodd" d="M829.172 441.545H711.466C709.861 441.545 708.56 440.244 708.56 438.639C708.56 437.035 709.861 435.734 711.466 435.734H829.172C830.777 435.734 832.078 437.035 832.078 438.639C832.078 440.244 830.777 441.545 829.172 441.545" fill="#1E1E1E"/>
<path fill-rule="evenodd" clip-rule="evenodd" d="M823.537 474.476H705.831C704.226 474.476 702.925 473.175 702.925 471.57C702.925 469.965 704.226 468.665 705.831 468.665H823.537C825.142 468.665 826.443 469.965 826.443 471.57C826.443 473.175 825.142 474.476 823.537 474.476" fill="#1E1E1E"/>
<path fill-rule="evenodd" clip-rule="evenodd" d="M817.902 507.407H700.195C698.591 507.407 697.29 506.106 697.29 504.501C697.29 502.896 698.591 501.596 700.195 501.596H817.902C819.507 501.596 820.808 502.896 820.808 504.501C820.808 506.106 819.507 507.407 817.902 507.407" fill="#1E1E1E"/>
<path fill-rule="evenodd" clip-rule="evenodd" d="M812.267 540.338H694.56C692.955 540.338 691.655 539.037 691.655 537.432C691.655 535.827 692.955 534.527 694.56 534.527H812.267C813.872 534.527 815.172 535.827 815.172 537.432C815.172 539.037 813.872 540.338 812.267 540.338" fill="#1E1E1E"/>
<path fill-rule="evenodd" clip-rule="evenodd" d="M901.38 339.585L890.481 403.858C889.773 408.034 892.99 411.843 897.225 411.843H1007.35C1010.68 411.843 1013.52 409.453 1014.09 406.178L1025.31 341.905C1026.04 337.72 1022.82 333.888 1018.57 333.888H908.124C904.788 333.888 901.938 336.296 901.38 339.585" fill="white"/>
<path fill-rule="evenodd" clip-rule="evenodd" d="M1005.62 441.545H887.918C886.313 441.545 885.012 440.244 885.012 438.639C885.012 437.035 886.313 435.734 887.918 435.734H1005.62C1007.23 435.734 1008.53 437.035 1008.53 438.639C1008.53 440.244 1007.23 441.545 1005.62 441.545" fill="#1E1E1E"/>
<path fill-rule="evenodd" clip-rule="evenodd" d="M999.989 474.476H882.282C880.678 474.476 879.377 473.175 879.377 471.57C879.377 469.965 880.678 468.665 882.282 468.665H999.989C1001.59 468.665 1002.89 469.965 1002.89 471.57C1002.89 473.175 1001.59 474.476 999.989 474.476" fill="#1E1E1E"/>
<path fill-rule="evenodd" clip-rule="evenodd" d="M994.354 507.407H876.647C875.042 507.407 873.741 506.106 873.741 504.501C873.741 502.896 875.042 501.596 876.647 501.596H994.354C995.959 501.596 997.259 502.896 997.259 504.501C997.259 506.106 995.959 507.407 994.354 507.407" fill="#1E1E1E"/>
<path fill-rule="evenodd" clip-rule="evenodd" d="M988.718 540.338H871.012C869.407 540.338 868.106 539.037 868.106 537.432C868.106 535.827 869.407 534.527 871.012 534.527H988.718C990.323 534.527 991.624 535.827 991.624 537.432C991.624 539.037 990.323 540.338 988.718 540.338" fill="#1E1E1E"/>
<path fill-rule="evenodd" clip-rule="evenodd" d="M1078.66 339.585L1067.76 403.858C1067.05 408.034 1070.27 411.843 1074.5 411.843H1184.63C1187.96 411.843 1190.8 409.453 1191.37 406.178L1202.59 341.905C1203.32 337.72 1200.1 333.888 1195.85 333.888H1085.4C1082.07 333.888 1079.22 336.296 1078.66 339.585" fill="white"/>
<path fill-rule="evenodd" clip-rule="evenodd" d="M1182.08 441.545H1064.37C1062.76 441.545 1061.46 440.244 1061.46 438.639C1061.46 437.035 1062.76 435.734 1064.37 435.734H1182.08C1183.68 435.734 1184.98 437.035 1184.98 438.639C1184.98 440.244 1183.68 441.545 1182.08 441.545" fill="#1E1E1E"/>
<path fill-rule="evenodd" clip-rule="evenodd" d="M1176.44 474.476H1058.73C1057.13 474.476 1055.83 473.175 1055.83 471.57C1055.83 469.965 1057.13 468.665 1058.73 468.665H1176.44C1178.05 468.665 1179.35 469.965 1179.35 471.57C1179.35 473.175 1178.05 474.476 1176.44 474.476" fill="#1E1E1E"/>
<path fill-rule="evenodd" clip-rule="evenodd" d="M1170.81 507.407H1053.1C1051.49 507.407 1050.19 506.106 1050.19 504.501C1050.19 502.896 1051.49 501.596 1053.1 501.596H1170.81C1172.41 501.596 1173.71 502.896 1173.71 504.501C1173.71 506.106 1172.41 507.407 1170.81 507.407" fill="#1E1E1E"/>
<path fill-rule="evenodd" clip-rule="evenodd" d="M1165.17 540.338H1047.46C1045.86 540.338 1044.56 539.037 1044.56 537.432C1044.56 535.827 1045.86 534.527 1047.46 534.527H1165.17C1166.77 534.527 1168.08 535.827 1168.08 537.432C1168.08 539.037 1166.77 540.338 1165.17 540.338" fill="#1E1E1E"/>
<path fill-rule="evenodd" clip-rule="evenodd" d="M811.072 101.904C804.054 101.904 798.002 106.834 796.584 113.707V113.707C794.691 122.886 801.7 131.489 811.072 131.489H1187.8C1194.73 131.489 1200.73 126.674 1202.24 119.906V119.906C1204.29 110.667 1197.26 101.904 1187.8 101.904H811.072Z" fill="#1E1E1E"/>
<path fill-rule="evenodd" clip-rule="evenodd" d="M1310.86 0H739.845L726.919 75.1364H1297.93L1310.86 0Z" fill="#1E1E1E"/>
<path fill-rule="evenodd" clip-rule="evenodd" d="M784.648 21.6018L778.543 51.187H991.509L998.083 21.6018H784.648Z" fill="white"/>
<path fill-rule="evenodd" clip-rule="evenodd" d="M1024.99 21.6018L1018.89 51.187H1108.44L1115.01 21.6018H1024.99Z" fill="white"/>
<path fill-rule="evenodd" clip-rule="evenodd" d="M1133.94 21.6018L1127.84 51.187H1260.59L1267.17 21.6018H1133.94Z" fill="white"/>
<path fill-rule="evenodd" clip-rule="evenodd" d="M769.151 28.8803C769.151 34.716 764.42 39.4469 758.585 39.4469C752.75 39.4469 748.019 34.716 748.019 28.8803C748.019 23.0449 752.75 18.3141 758.585 18.3141C764.42 18.3141 769.151 23.0449 769.151 28.8803" fill="white"/>
<path fill-rule="evenodd" clip-rule="evenodd" d="M761.379 36.8399L770.536 53.9807L774.136 51.9456L764.588 35.3528L761.379 36.8399Z" fill="white"/>
<path fill-rule="evenodd" clip-rule="evenodd" d="M381.036 698.771L444.084 311.347H724.313L663.738 698.771H381.036Z" fill="#4274FF" fill-opacity="0.3"/>
<path fill-rule="evenodd" clip-rule="evenodd" d="M627.486 524.377H468.054C465.88 524.377 464.118 522.615 464.118 520.441C464.118 518.268 465.88 516.505 468.054 516.505H627.486C629.659 516.505 631.421 518.268 631.421 520.441C631.421 522.615 629.659 524.377 627.486 524.377" fill="#1E1E1E"/>
<path fill-rule="evenodd" clip-rule="evenodd" d="M619.853 568.981H460.421C458.248 568.981 456.486 567.219 456.486 565.046C456.486 562.872 458.248 561.11 460.421 561.11H619.853C622.027 561.11 623.789 562.872 623.789 565.046C623.789 567.219 622.027 568.981 619.853 568.981" fill="#1E1E1E"/>
<path fill-rule="evenodd" clip-rule="evenodd" d="M612.22 613.586H452.788C450.615 613.586 448.853 611.824 448.853 609.65C448.853 607.477 450.615 605.715 452.788 605.715H612.22C614.394 605.715 616.156 607.477 616.156 609.65C616.156 611.824 614.394 613.586 612.22 613.586" fill="#1E1E1E"/>
<path fill-rule="evenodd" clip-rule="evenodd" d="M604.587 658.191H445.156C442.982 658.191 441.22 656.429 441.22 654.255C441.22 652.081 442.982 650.319 445.156 650.319H604.587C606.761 650.319 608.523 652.081 608.523 654.255C608.523 656.429 606.761 658.191 604.587 658.191" fill="#1E1E1E"/>
<path fill-rule="evenodd" clip-rule="evenodd" d="M645.841 492.849H474.924C459.899 492.849 448.422 479.437 450.745 464.592L467.958 354.578C469.822 342.668 480.082 333.888 492.138 333.888H663.054C678.079 333.888 689.556 347.301 687.233 362.145L670.02 472.159C668.156 484.07 657.896 492.849 645.841 492.849" fill="white"/>
<path fill-rule="evenodd" clip-rule="evenodd" d="M545.428 386.86L536.579 433.104C534.556 443.676 544.757 452.462 554.912 448.894L597.937 433.777C607.902 430.276 610.517 417.405 602.708 410.293L568.532 379.165C560.47 371.821 547.478 376.148 545.428 386.86" fill="#FCAA23"/>
<path fill-rule="evenodd" clip-rule="evenodd" d="M452.873 257.343L444.084 311.347H724.313L732.757 257.343H452.873Z" fill="#1E1E1E"/>
<path fill-rule="evenodd" clip-rule="evenodd" d="M631.792 301.485H482.016C473.976 301.485 467.458 294.968 467.458 286.928C467.458 278.888 473.976 272.37 482.016 272.37H631.792C639.832 272.37 646.35 278.888 646.35 286.928C646.35 294.968 639.832 301.485 631.792 301.485Z" fill="white"/>
<path fill-rule="evenodd" clip-rule="evenodd" d="M111.146 422.409C87.945 427.938 38.9445 461.151 22.7436 503.767C6.54178 546.384 20.9821 626.334 38.9445 676.347C56.907 726.36 94.2403 872.524 231.365 869.237C368.489 865.95 468.75 864.541 503.853 787.526C538.955 710.511 515.476 662.141 453.018 625.982C390.561 589.823 349.236 597.914 321.059 501.591C292.883 405.268 161.394 410.434 111.146 422.409" fill="url(#paint0_linear_290_182)"/>
<mask id="mask0_290_182" style="mask-type:alpha" maskUnits="userSpaceOnUse" x="15" y="416" width="506" height="454">
<path fill-rule="evenodd" clip-rule="evenodd" d="M321.059 501.591C349.235 597.914 390.56 589.823 453.018 625.982C515.475 662.141 538.955 710.511 503.852 787.526C468.75 864.541 368.489 865.949 231.365 869.237C94.2403 872.524 56.907 726.36 38.9441 676.347C20.9821 626.334 6.54179 546.384 22.7432 503.767C38.9441 461.151 87.9449 427.938 111.146 422.409C125.766 418.924 147.254 416.017 171.084 416.018C229.154 416.019 301.081 433.294 321.059 501.591Z" fill="white"/>
</mask>
<g mask="url(#mask0_290_182)">
<path fill-rule="evenodd" clip-rule="evenodd" d="M343.982 863C343.982 863 365.047 793.997 343.066 788.683C321.085 783.369 190.759 802.04 181.87 706.026C172.98 610.012 82.4961 566.9 121.879 514.727C161.262 462.555 158.973 483.608 146.608 446.995C134.244 410.383 166.3 391.772 189.655 394.213C213.01 396.654 234.992 452.03 235.449 494.133C235.907 536.237 278.497 600.416 336.197 627.767C393.898 655.119 439.235 637.836 452.973 733.485C466.711 829.134 447.935 861.17 447.935 861.17L343.982 863Z" fill="url(#paint1_linear_290_182)"/>
</g>
<path fill-rule="evenodd" clip-rule="evenodd" d="M230.269 394.311C230.269 394.311 293.196 407.929 303.527 420.139C313.859 432.348 305.876 451.133 290.222 470.7C274.568 490.266 267.681 496.841 267.681 496.841L249.523 479.309C249.523 479.309 262.985 463.029 272.533 449.568C282.082 436.105 285.996 432.505 273.786 428.905C261.576 425.304 231.678 415.13 231.678 415.13L230.269 394.311Z" fill="#FFE2B8"/>
<mask id="mask1_290_182" style="mask-type:alpha" maskUnits="userSpaceOnUse" x="230" y="394" width="79" height="103">
<path fill-rule="evenodd" clip-rule="evenodd" d="M303.527 420.139C313.859 432.348 305.875 451.133 290.222 470.7V470.7C274.568 490.266 267.681 496.841 267.681 496.841V496.841L249.523 479.309C249.523 479.309 262.985 463.029 272.533 449.568V449.568C282.082 436.105 285.995 432.505 273.785 428.905V428.905C261.576 425.304 231.678 415.13 231.678 415.13V415.13L230.269 394.311C230.269 394.311 293.195 407.929 303.527 420.139V420.139Z" fill="white"/>
</mask>
<g mask="url(#mask1_290_182)">
<path fill-rule="evenodd" clip-rule="evenodd" d="M269.637 495.51C269.872 495.432 259.776 487.37 263.611 474.3C267.446 461.229 277.855 449.646 282.239 441.271C286.622 432.897 284.586 430.627 279.108 428.514C273.629 426.4 249.836 419.748 244.044 416.695C238.252 413.643 238.565 407.538 238.565 407.538L237.548 424.13L275.899 434.383L243.496 476.569L252.419 489.562L269.637 495.51Z" fill="#FFDC8F"/>
</g>
<path fill-rule="evenodd" clip-rule="evenodd" d="M369.927 831.857C370.178 825.393 372.089 819.78 372.089 818.823C372.089 816.005 372.872 809.597 373.342 805.371L406.527 806.31C406.527 806.31 404.833 817.99 409.922 822.161C405.62 826.405 392.624 836.51 369.927 831.857" fill="#FFE2B8"/>
<path fill-rule="evenodd" clip-rule="evenodd" d="M409.922 822.161C410.183 822.375 410.456 822.574 410.754 822.746C416.858 826.268 461.705 834.956 467.341 843.643C472.976 852.331 467.341 864.776 467.341 864.776L368.724 861.723C368.724 861.723 369.441 844.422 369.927 831.856C392.624 836.51 405.62 826.406 409.922 822.161" fill="#919191"/>
<path fill-rule="evenodd" clip-rule="evenodd" d="M292.531 639.718L303.126 641.165C303.126 641.165 418.267 650.284 429.89 662.964C441.512 675.642 410.518 809.48 410.518 809.48C410.518 809.48 385.16 822.159 371.776 807.719C371.776 807.719 377.411 709.165 387.626 687.826L304.623 691.844L249.209 645.705L292.531 639.718Z" fill="#1E1E1E"/>
<mask id="mask2_290_182" style="mask-type:alpha" maskUnits="userSpaceOnUse" x="249" y="639" width="184" height="176">
<path fill-rule="evenodd" clip-rule="evenodd" d="M303.126 641.165C303.126 641.165 418.267 650.284 429.89 662.964V662.964C441.512 675.642 410.518 809.48 410.518 809.48V809.48C410.518 809.48 385.16 822.159 371.776 807.719V807.719C371.776 807.719 377.412 709.165 387.626 687.826V687.826L304.623 691.844L249.21 645.705L292.531 639.718L303.126 641.165Z" fill="white"/>
</mask>
<g mask="url(#mask2_290_182)">
<path fill-rule="evenodd" clip-rule="evenodd" d="M402.77 818.823C402.77 818.823 396.43 768.389 400.305 723.777C404.179 679.165 408.934 675.569 369.927 677.543C330.921 679.517 388.33 657.392 388.33 657.392L263.595 650.724L283.725 706.284C283.725 706.284 344.187 751.014 348.296 755.241C352.405 759.467 377.411 816.876 377.411 816.876L402.77 818.823Z" fill="black"/>
</g>
<path fill-rule="evenodd" clip-rule="evenodd" d="M523.693 808.658C523.693 808.658 562.67 753.245 569.245 750.662C575.819 748.079 591.786 752.305 591.786 752.305C591.786 752.305 569.245 848.105 558.444 848.34C553.718 848.442 539.552 844.275 525.112 839.554C532.45 825.566 523.693 808.658 523.693 808.658" fill="#919191"/>
<path fill-rule="evenodd" clip-rule="evenodd" d="M497.161 798.092L523.693 808.658C523.693 808.658 532.45 825.566 525.112 839.553C506.55 833.485 487.534 826.503 487.534 826.503L497.161 798.092Z" fill="#FFE2B8"/>
<path fill-rule="evenodd" clip-rule="evenodd" d="M269.221 652.045C269.221 652.045 311.902 684.448 345.714 708.045C379.525 731.643 462.997 789.404 503.853 794.335C503.853 794.335 501.74 824.272 487.299 829.907C487.299 829.907 420.733 808.071 342.543 770.737C264.355 733.404 220.681 706.988 208.706 684.448L258.719 649.58L269.221 652.045Z" fill="#1E1E1E"/>
<mask id="mask3_290_182" style="mask-type:alpha" maskUnits="userSpaceOnUse" x="208" y="649" width="296" height="181">
<path fill-rule="evenodd" clip-rule="evenodd" d="M269.221 652.045C269.221 652.045 311.902 684.448 345.713 708.045C379.525 731.643 462.997 789.404 503.852 794.335C503.852 794.335 501.739 824.272 487.299 829.907C487.299 829.907 420.733 808.071 342.544 770.737C264.355 733.404 220.681 706.988 208.706 684.448L258.719 649.579L269.221 652.045Z" fill="white"/>
</mask>
<g mask="url(#mask3_290_182)">
<path fill-rule="evenodd" clip-rule="evenodd" d="M510.07 810.536C510.07 810.536 495.466 822.511 443.13 802.788C390.796 783.064 228.341 704.497 215.399 677.542L198.55 690.787L252.027 753.127C252.027 753.127 340.221 792.574 340.854 792.926C341.487 793.278 409.922 814.627 409.922 814.627L474.267 846.461L501.739 843.468L510.07 810.536Z" fill="black"/>
</g>
<path fill-rule="evenodd" clip-rule="evenodd" d="M173.76 490.579L171.882 491.049C171.882 491.049 166.247 493.005 155.915 497.506C145.584 502.006 135.253 510.929 133.687 528.617C132.122 546.306 146.601 585.596 146.601 585.596L158.576 587.709C158.576 587.709 167.968 613.302 172.43 625.277C176.891 637.252 187.927 679.282 207.18 687.735C207.18 687.735 217.042 689.848 233.478 673.647C249.914 657.445 304.623 640.696 304.623 640.696C304.623 640.696 279.029 630.913 271.046 618.703C263.063 606.493 249.945 560.941 245.233 545.21C240.523 529.479 273.864 498.484 273.864 498.484C273.864 498.484 264.941 482.518 249.914 475.004C249.914 475.004 241.853 484.318 228.391 484.005C214.929 483.692 197.397 490.892 197.397 490.892L173.76 490.579Z" fill="white"/>
<mask id="mask4_290_182" style="mask-type:alpha" maskUnits="userSpaceOnUse" x="133" y="475" width="172" height="213">
<path fill-rule="evenodd" clip-rule="evenodd" d="M273.864 498.484C273.864 498.484 240.522 529.478 245.233 545.21V545.21C249.945 560.942 263.063 606.493 271.046 618.703V618.703C279.03 630.913 304.623 640.696 304.623 640.696V640.696C304.623 640.696 249.914 657.445 233.478 673.647V673.647C217.042 689.848 207.181 687.735 207.181 687.735V687.735C187.927 679.282 176.891 637.252 172.43 625.277V625.277C167.968 613.303 158.576 587.709 158.576 587.709V587.709L146.601 585.596C146.601 585.596 132.122 546.306 133.687 528.618V528.618C135.253 510.929 145.584 502.007 155.915 497.506V497.506C166.247 493.005 171.882 491.049 171.882 491.049V491.049L173.76 490.579L197.397 490.892C197.397 490.892 214.929 483.692 228.391 484.005V484.005C241.853 484.318 249.914 475.004 249.914 475.004V475.004C264.941 482.518 273.864 498.484 273.864 498.484V498.484Z" fill="white"/>
</mask>
<g mask="url(#mask4_290_182)">
<path fill-rule="evenodd" clip-rule="evenodd" d="M169.612 577.378C169.612 577.378 167.264 575.734 157.089 575.734C146.914 575.734 122.103 516.251 152.158 498.25L117.877 514.216L130.243 576.36L149.889 594.362L162.803 587.475L171.624 580.008L169.612 577.378Z" fill="#FFEBD2"/>
</g>
<mask id="mask5_290_182" style="mask-type:alpha" maskUnits="userSpaceOnUse" x="133" y="475" width="172" height="213">
<path fill-rule="evenodd" clip-rule="evenodd" d="M273.864 498.484C273.864 498.484 240.522 529.478 245.233 545.21V545.21C249.945 560.942 263.063 606.493 271.046 618.703V618.703C279.03 630.913 304.623 640.696 304.623 640.696V640.696C304.623 640.696 249.914 657.445 233.478 673.647V673.647C217.042 689.848 207.181 687.735 207.181 687.735V687.735C187.927 679.282 176.891 637.252 172.43 625.277V625.277C167.968 613.303 158.576 587.709 158.576 587.709V587.709L146.601 585.596C146.601 585.596 132.122 546.306 133.687 528.618V528.618C135.253 510.929 145.584 502.007 155.915 497.506V497.506C166.247 493.005 171.882 491.049 171.882 491.049V491.049L173.76 490.579L197.397 490.892C197.397 490.892 214.929 483.692 228.391 484.005V484.005C241.853 484.318 249.914 475.004 249.914 475.004V475.004C264.941 482.518 273.864 498.484 273.864 498.484V498.484Z" fill="white"/>
</mask>
<g mask="url(#mask5_290_182)">
<path fill-rule="evenodd" clip-rule="evenodd" d="M162.255 533.235C162.255 533.235 175.717 580.43 187.222 595.222C198.728 610.015 264.237 642.655 264.237 642.655L262.594 663.316L242.783 666.605C242.783 666.605 176.184 643.592 167.732 628.565C159.281 613.537 166.09 590.527 166.09 590.527L168.673 581.415L170.802 580.704L162.255 533.235Z" fill="#FFEBD2"/>
</g>
<mask id="mask6_290_182" style="mask-type:alpha" maskUnits="userSpaceOnUse" x="133" y="475" width="172" height="213">
<path fill-rule="evenodd" clip-rule="evenodd" d="M273.864 498.484C273.864 498.484 240.522 529.478 245.233 545.21V545.21C249.945 560.942 263.063 606.493 271.046 618.703V618.703C279.03 630.913 304.623 640.696 304.623 640.696V640.696C304.623 640.696 249.914 657.445 233.478 673.647V673.647C217.042 689.848 207.181 687.735 207.181 687.735V687.735C187.927 679.282 176.891 637.252 172.43 625.277V625.277C167.968 613.303 158.576 587.709 158.576 587.709V587.709L146.601 585.596C146.601 585.596 132.122 546.306 133.687 528.618V528.618C135.253 510.929 145.584 502.007 155.915 497.506V497.506C166.247 493.005 171.882 491.049 171.882 491.049V491.049L173.76 490.579L197.397 490.892C197.397 490.892 214.929 483.692 228.391 484.005V484.005C241.853 484.318 249.914 475.004 249.914 475.004V475.004C264.941 482.518 273.864 498.484 273.864 498.484" fill="white"/>
</mask>
<g mask="url(#mask6_290_182)">
<path fill-rule="evenodd" clip-rule="evenodd" d="M171.098 582.915C171.16 582.915 171.224 582.909 171.288 582.895C171.785 582.791 172.103 582.304 171.999 581.807C167.221 559.044 162.349 530.78 162.3 530.497C162.214 529.996 161.74 529.654 161.238 529.746C160.737 529.832 160.401 530.308 160.487 530.808C160.536 531.091 165.414 559.389 170.199 582.185C170.29 582.618 170.672 582.915 171.098 582.915" fill="#EF7D00"/>
</g>
<mask id="mask7_290_182" style="mask-type:alpha" maskUnits="userSpaceOnUse" x="133" y="475" width="172" height="213">
<path fill-rule="evenodd" clip-rule="evenodd" d="M273.864 498.484C273.864 498.484 240.522 529.478 245.233 545.21V545.21C249.945 560.942 263.063 606.493 271.046 618.703V618.703C279.03 630.913 304.623 640.696 304.623 640.696V640.696C304.623 640.696 249.914 657.445 233.478 673.647V673.647C217.042 689.848 207.181 687.735 207.181 687.735V687.735C187.927 679.282 176.891 637.252 172.43 625.277V625.277C167.968 613.303 158.576 587.709 158.576 587.709V587.709L146.601 585.596C146.601 585.596 132.122 546.306 133.687 528.618V528.618C135.253 510.929 145.584 502.007 155.915 497.506V497.506C166.247 493.005 171.882 491.049 171.882 491.049V491.049L173.76 490.579L197.397 490.892C197.397 490.892 214.929 483.692 228.391 484.005V484.005C241.853 484.318 249.914 475.004 249.914 475.004V475.004C264.941 482.518 273.864 498.484 273.864 498.484V498.484Z" fill="white"/>
</mask>
<g mask="url(#mask7_290_182)">
<path fill-rule="evenodd" clip-rule="evenodd" d="M273.981 502.124C273.981 502.124 254.61 512.221 246.04 523.139C237.469 534.057 249.562 559.725 249.562 559.725L267.95 513.629L273.981 502.124Z" fill="#FFEBD2"/>
</g>
<path fill-rule="evenodd" clip-rule="evenodd" d="M171.96 582.152C171.96 582.152 179.474 607.354 188.866 610.485C198.258 613.616 249.21 641.002 249.21 641.002C249.21 641.002 287.952 637.487 289.009 650.636C290.065 663.785 246.04 653.689 246.04 653.689C246.04 653.689 204.245 641.244 190.744 635.374C177.243 629.504 166.207 623.751 162.685 617.177C159.163 610.603 149.889 584.422 149.889 584.422C149.889 584.422 168.712 575.186 171.96 582.152" fill="#FFE2B8"/>
<mask id="mask8_290_182" style="mask-type:alpha" maskUnits="userSpaceOnUse" x="149" y="579" width="141" height="79">
<path fill-rule="evenodd" clip-rule="evenodd" d="M171.96 582.152C171.96 582.152 179.474 607.355 188.865 610.485C198.258 613.616 249.21 641.002 249.21 641.002C249.21 641.002 287.952 637.487 289.009 650.636C290.065 663.785 246.04 653.689 246.04 653.689C246.04 653.689 204.245 641.244 190.744 635.374C177.243 629.504 166.207 623.751 162.685 617.177C159.163 610.603 149.889 584.422 149.889 584.422C149.889 584.422 159.815 579.553 166.494 579.552C169.013 579.552 171.07 580.244 171.96 582.152Z" fill="white"/>
</mask>
<g mask="url(#mask8_290_182)">
<path fill-rule="evenodd" clip-rule="evenodd" d="M155.602 580.43C155.602 580.43 152.002 582.465 155.445 591.388C158.889 600.31 161.529 611.727 166.559 617.373C171.589 623.018 231.979 648.682 240.443 650.714C248.908 652.747 286.152 650.714 286.152 650.714L289.027 657.392H244.827H223.225L167.029 641.792C167.029 641.792 157.167 624.729 156.698 623.634C156.228 622.538 144.175 599.058 144.644 598.745C145.114 598.432 146.366 580.587 146.366 580.587L155.602 580.43Z" fill="#FFDC8F"/>
</g>
<path fill-rule="evenodd" clip-rule="evenodd" d="M286.152 651.81L236.374 653.063V660.889L282.489 662.031L286.152 651.81Z" fill="#333333"/>
<path fill-rule="evenodd" clip-rule="evenodd" d="M408.758 561.881H280.203L282.489 662.031H402.418L408.758 561.881Z" fill="#919191"/>
<path fill-rule="evenodd" clip-rule="evenodd" d="M336.26 609.373C335.868 616.711 340.94 622.947 347.587 623.302C354.234 623.657 359.941 617.996 360.332 610.658C360.724 603.32 355.653 597.084 349.005 596.729C342.358 596.374 336.652 602.035 336.26 609.373" fill="white"/>
<path fill-rule="evenodd" clip-rule="evenodd" d="M226.434 423.817C226.434 423.817 238.174 424.991 239.583 415.247C240.991 405.503 237.822 401.394 237.822 401.394C237.822 401.394 246.392 395.758 245.101 380.848C243.809 365.938 232.069 361.36 223.146 358.425C214.224 355.49 203.306 361.947 199.314 375.566C199.314 375.566 182.761 364.882 164.094 374.391C145.427 383.901 141.436 400.572 141.436 400.572L133.57 394.937L131.809 397.402L140.262 401.629C140.262 401.629 130.987 419.591 141.67 438.023C152.354 456.455 177.948 466.082 177.948 466.082L226.434 423.817Z" fill="#1E1E1E"/>
<mask id="mask9_290_182" style="mask-type:alpha" maskUnits="userSpaceOnUse" x="131" y="357" width="115" height="110">
<path fill-rule="evenodd" clip-rule="evenodd" d="M223.147 358.425C232.069 361.36 243.809 365.939 245.101 380.849V380.849C246.392 395.759 237.822 401.394 237.822 401.394V401.394C237.822 401.394 240.991 405.503 239.583 415.247V415.247C238.174 424.991 226.434 423.818 226.434 423.818V423.818L177.948 466.082C177.948 466.082 152.354 456.455 141.67 438.023V438.023C130.987 419.591 140.262 401.629 140.262 401.629V401.629L131.809 397.402L133.57 394.937L141.436 400.572C141.436 400.572 145.427 383.901 164.094 374.392V374.392C182.761 364.882 199.314 375.565 199.314 375.565V375.565C202.671 364.116 210.922 357.728 218.768 357.728V357.728C220.254 357.729 221.726 357.958 223.147 358.425" fill="white"/>
</mask>
<g mask="url(#mask9_290_182)">
<path fill-rule="evenodd" clip-rule="evenodd" d="M242.988 406.09L237.822 401.394C237.822 401.394 238.213 412.437 230.269 411.905C222.325 411.373 198.55 407.968 198.55 407.968C198.55 407.968 192.035 428.396 176.891 423.23C161.746 418.065 166.772 435.373 156.698 440.136C146.623 444.899 140.613 442.602 140.613 442.602L180.06 473.008L209.176 449.059L244.161 428.396C244.161 428.396 248.505 409.73 248.153 409.612C247.801 409.495 242.988 406.09 242.988 406.09" fill="black"/>
</g>
<mask id="mask10_290_182" style="mask-type:alpha" maskUnits="userSpaceOnUse" x="131" y="357" width="115" height="110">
<path fill-rule="evenodd" clip-rule="evenodd" d="M223.147 358.425C232.069 361.36 243.809 365.939 245.101 380.849V380.849C246.392 395.759 237.822 401.394 237.822 401.394V401.394C237.822 401.394 240.991 405.503 239.583 415.247V415.247C238.174 424.991 226.434 423.818 226.434 423.818V423.818L177.948 466.082C177.948 466.082 152.354 456.455 141.67 438.023V438.023C130.987 419.591 140.262 401.629 140.262 401.629V401.629L131.809 397.402L133.57 394.937L141.436 400.572C141.436 400.572 145.427 383.901 164.094 374.392V374.392C182.761 364.882 199.314 375.565 199.314 375.565V375.565C202.671 364.116 210.922 357.728 218.768 357.728V357.728C220.254 357.729 221.726 357.958 223.147 358.425V358.425Z" fill="white"/>
</mask>
<g mask="url(#mask10_290_182)">
<path fill-rule="evenodd" clip-rule="evenodd" d="M239.818 364.765C239.818 364.765 221.503 355.138 212.698 365.234C203.893 375.331 202.132 382.493 202.132 382.493C202.132 382.493 194.632 373.059 176.656 375.331C158.679 377.603 138.821 405.178 138.821 405.178L122.065 402.92C122.065 402.92 121.83 382.258 123.121 381.319C124.412 380.379 194.383 357.728 194.383 357.728L219.977 351.733L239.818 364.765Z" fill="#333333"/>
</g>
<path fill-rule="evenodd" clip-rule="evenodd" d="M227.765 417.947C227.765 417.947 233.4 466.63 223.538 472.108C213.676 477.587 200.214 467.725 197.397 473.83C194.58 479.935 197.397 490.893 197.397 490.893C197.397 490.893 194.892 498.093 184.874 497.467C174.856 496.841 171.881 491.049 171.881 491.049C171.881 491.049 178.613 478.526 175.169 466.943C171.725 455.359 173.134 451.133 173.134 451.133C173.134 451.133 165.151 448.158 168.595 436.105C172.038 424.052 178.143 434.07 178.143 434.07C178.143 434.07 185.813 441.897 192.858 429.688C192.858 429.688 198.434 432.153 200.9 426.811C203.365 421.47 201.78 418.534 201.78 418.534C201.78 418.534 210.409 427.222 218.333 423.641C226.258 420.06 227.765 417.947 227.765 417.947" fill="#FFE2B8"/>
<mask id="mask11_290_182" style="mask-type:alpha" maskUnits="userSpaceOnUse" x="167" y="417" width="63" height="81">
<path fill-rule="evenodd" clip-rule="evenodd" d="M223.538 472.108C218.706 474.793 213.009 473.794 208.124 472.796V472.796C203.039 471.756 198.834 470.717 197.396 473.83V473.83C194.579 479.935 197.396 490.892 197.396 490.892V490.892C197.396 490.892 194.892 498.093 184.873 497.467V497.467C174.855 496.841 171.882 491.049 171.882 491.049V491.049C171.882 491.049 178.612 478.526 175.169 466.942V466.942C171.725 455.359 173.134 451.133 173.134 451.133V451.133C173.134 451.133 165.15 448.158 168.594 436.105V436.105C172.038 424.053 178.143 434.071 178.143 434.071V434.071C178.143 434.071 185.813 441.897 192.857 429.687V429.687C192.857 429.687 198.434 432.153 200.899 426.811V426.811C203.365 421.469 201.779 418.534 201.779 418.534V418.534C201.779 418.534 210.409 427.222 218.333 423.641V423.641C226.258 420.061 227.765 417.947 227.765 417.947V417.947C227.765 417.947 233.4 466.63 223.538 472.108V472.108Z" fill="white"/>
</mask>
<g mask="url(#mask11_290_182)">
<path fill-rule="evenodd" clip-rule="evenodd" d="M232.539 420.706C232.539 420.706 227.373 429.628 218.509 429.276C209.646 428.924 206.182 426.107 206.182 426.107C206.182 426.107 200.723 435.91 193.679 433.914C193.679 433.914 188.69 442.895 179.65 438.375C170.61 433.855 166.442 436.379 166.442 436.379L169.259 426.635L196.731 414.895L218.685 413.545L227.667 413.603L232.539 420.706Z" fill="#FFDC8F"/>
</g>
<mask id="mask12_290_182" style="mask-type:alpha" maskUnits="userSpaceOnUse" x="167" y="417" width="63" height="81">
<path fill-rule="evenodd" clip-rule="evenodd" d="M223.538 472.108C218.706 474.793 213.009 473.794 208.124 472.796V472.796C203.039 471.756 198.834 470.717 197.396 473.83V473.83C194.579 479.935 197.396 490.892 197.396 490.892V490.892C197.396 490.892 194.892 498.093 184.873 497.467V497.467C174.855 496.841 171.882 491.049 171.882 491.049V491.049C171.882 491.049 178.612 478.526 175.169 466.942V466.942C171.725 455.359 173.134 451.133 173.134 451.133V451.133C173.134 451.133 165.15 448.158 168.594 436.105V436.105C172.038 424.053 178.143 434.071 178.143 434.071V434.071C178.143 434.071 185.813 441.897 192.857 429.687V429.687C192.857 429.687 198.434 432.153 200.899 426.811V426.811C203.365 421.469 201.779 418.534 201.779 418.534V418.534C201.779 418.534 210.409 427.222 218.333 423.641V423.641C226.258 420.061 227.765 417.947 227.765 417.947V417.947C227.765 417.947 233.4 466.63 223.538 472.108V472.108Z" fill="white"/>
</mask>
<g mask="url(#mask12_290_182)">
<path fill-rule="evenodd" clip-rule="evenodd" d="M203.071 473.243L200.422 471.811C200.422 471.811 179.825 459.625 180.648 467.843C181.469 476.06 198.55 482.87 198.55 482.87L203.071 473.243Z" fill="#FFDC8F"/>
</g>
<mask id="mask13_290_182" style="mask-type:alpha" maskUnits="userSpaceOnUse" x="1478" y="178" width="228" height="180">
<path d="M1501.76 241.529C1502.4 238.57 1504.57 235.829 1507.48 234.307L1612.67 179.2C1615.72 177.6 1619.1 177.6 1621.46 179.2L1702.57 234.307C1704.81 235.829 1705.79 238.57 1705.14 241.529L1681.75 348.657C1680.73 353.309 1676.08 357.08 1671.37 357.08H1485.06C1480.34 357.08 1477.34 353.309 1478.36 348.657L1501.76 241.529Z" fill="#7E7E7E"/>
</mask>
<g mask="url(#mask13_290_182)">
<path fill-rule="evenodd" clip-rule="evenodd" d="M1502.8 236.76L1617.63 176.6L1706.19 236.76L1679.91 357.08H1476.52L1502.8 236.76H1502.8Z" fill="white"/>
<g clip-path="url(#clip0_290_182)">
<mask id="mask14_290_182" style="mask-type:alpha" maskUnits="userSpaceOnUse" x="1546" y="193" width="114" height="108">
<ellipse rx="55.2414" ry="55.0372" transform="matrix(1 0 -0.213371 0.976971 1602.74 246.888)" fill="#D9D9D9"/>
</mask>
<g mask="url(#mask14_290_182)">
<path d="M1602.34 248.501C1627.38 248.501 1650.74 234.514 1654.51 217.261C1654.6 216.858 1654.68 216.457 1654.74 216.058C1659.12 224.787 1660.49 235.418 1657.98 246.888C1651.5 276.584 1621.51 300.657 1591 300.657C1560.49 300.657 1541.02 276.584 1547.5 246.888C1549.99 235.49 1555.94 224.921 1564.06 216.224C1563.96 216.568 1563.88 216.914 1563.8 217.261C1560.04 234.514 1577.29 248.501 1602.34 248.501Z" fill="url(#paint2_linear_290_182)"/>
<path d="M1657.98 246.888C1651.5 276.584 1621.51 300.657 1591 300.657C1560.49 300.657 1541.02 276.584 1547.5 246.888C1554.42 215.217 1573.16 256.562 1598.16 267.858C1637.08 285.441 1664.16 218.605 1657.98 246.888Z" fill="url(#paint3_linear_290_182)"/>
<path d="M1657.98 246.888C1654.57 262.502 1621.51 300.657 1591 300.657C1560.49 300.657 1541.02 276.584 1547.5 246.888C1570.45 277.375 1571.6 243.285 1634.59 257.373C1675.27 266.471 1665.52 212.368 1657.98 246.888Z" fill="url(#paint4_linear_290_182)"/>
<path d="M1657.98 246.888C1651.5 276.584 1621.51 300.657 1591 300.657C1560.49 300.657 1541.09 276.246 1547.5 246.888C1549.86 257.104 1567.15 281.623 1596.54 275.278C1641.2 263.287 1664.47 217.191 1657.98 246.888Z" fill="url(#paint5_linear_290_182)"/>
<path d="M1583.72 263.18C1584.63 263.18 1585.23 263.907 1584.88 264.785C1584.61 265.468 1584.27 266.137 1583.85 266.781C1583.12 267.922 1582.18 268.96 1581.09 269.833C1580 270.707 1578.78 271.4 1577.51 271.873C1576.23 272.346 1574.92 272.59 1573.65 272.59C1572.38 272.59 1571.18 272.346 1570.11 271.873C1569.04 271.4 1568.12 270.707 1567.42 269.833C1566.71 268.96 1566.23 267.922 1565.99 266.781C1565.86 266.137 1565.8 265.468 1565.83 264.785C1565.87 263.907 1566.78 263.18 1567.7 263.18L1583.72 263.18Z" fill="white"/>
<path d="M1630.67 263.18C1631.59 263.18 1632.18 263.907 1631.84 264.785C1631.57 265.468 1631.22 266.137 1630.81 266.781C1630.07 267.922 1629.13 268.96 1628.04 269.833C1626.96 270.707 1625.74 271.4 1624.46 271.873C1623.19 272.346 1621.88 272.59 1620.61 272.59C1619.34 272.59 1618.13 272.346 1617.06 271.873C1615.99 271.4 1615.08 270.707 1614.37 269.833C1613.67 268.96 1613.18 267.922 1612.94 266.781C1612.81 266.137 1612.76 265.468 1612.79 264.785C1612.82 263.907 1613.74 263.18 1614.65 263.18L1630.67 263.18Z" fill="white"/>
<path d="M1593.63 283.612C1594.21 282.895 1595.27 282.895 1595.54 283.612L1597.36 288.465C1597.75 289.512 1596.16 290.605 1595.39 289.82L1594.21 288.619C1593.87 288.275 1593.26 288.275 1592.77 288.619L1591.07 289.82C1589.95 290.605 1588.84 289.512 1589.69 288.465L1593.63 283.612Z" fill="white"/>
</g>
</g>
<g filter="url(#filter0_d_290_182)">
<path d="M1476.52 357.08L1706.19 236.76L1679.91 357.08H1476.52Z" fill="white"/>
</g>
<g filter="url(#filter1_d_290_182)">
<path d="M1502.8 236.76L1679.91 357.08H1476.52L1502.8 236.76Z" fill="white"/>
</g>
</g>
<path fill-rule="evenodd" clip-rule="evenodd" d="M1301.81 534.882C1301.81 534.882 1335.34 573.5 1358.14 607.028C1380.94 640.556 1382.95 688.837 1375.57 708.953C1375.57 708.953 1343.38 690.848 1321.93 662.685C1300.47 634.521 1285.72 577.403 1301.81 534.882" fill="url(#paint6_linear_290_182)"/>
<path fill-rule="evenodd" clip-rule="evenodd" d="M1420.83 430C1420.83 430 1369.54 451.337 1348.75 534.882C1327.96 618.428 1392 707.277 1392 707.277C1392 707.277 1420.83 670.731 1434.58 649.944C1448.33 629.157 1467.77 575.847 1460.06 530.919C1452.35 485.992 1420.83 430 1420.83 430" fill="url(#paint7_linear_290_182)"/>
<path d="M1410.44 465.54C1410.44 465.54 1363.84 551.707 1392 707.277" stroke="#1E1E1E" stroke-width="2" stroke-linecap="round" stroke-linejoin="round"/>
<path d="M1303.82 554.389C1303.82 554.389 1320.97 663.258 1375.57 708.953" stroke="#1E1E1E" stroke-width="2" stroke-linecap="round" stroke-linejoin="round"/>
<path fill-rule="evenodd" clip-rule="evenodd" d="M1309.19 702.381C1309.19 702.381 1378.92 691.113 1441.96 702.381L1405.3 864.972H1340.93L1309.19 702.381Z" fill="#EF7D00"/>
<defs>
<filter id="filter0_d_290_182" x="1442.52" y="206.76" width="297.667" height="188.32" filterUnits="userSpaceOnUse" color-interpolation-filters="sRGB">
<feFlood flood-opacity="0" result="BackgroundImageFix"/>
<feColorMatrix in="SourceAlpha" type="matrix" values="0 0 0 0 0 0 0 0 0 0 0 0 0 0 0 0 0 0 127 0" result="hardAlpha"/>
<feOffset dy="4"/>
<feGaussianBlur stdDeviation="17"/>
<feComposite in2="hardAlpha" operator="out"/>
<feColorMatrix type="matrix" values="0 0 0 0 0 0 0 0 0 0 0 0 0 0 0 0 0 0 0.25 0"/>
<feBlend mode="normal" in2="BackgroundImageFix" result="effect1_dropShadow_290_182"/>
<feBlend mode="normal" in="SourceGraphic" in2="effect1_dropShadow_290_182" result="shape"/>
</filter>
<filter id="filter1_d_290_182" x="1442.52" y="206.76" width="271.389" height="188.32" filterUnits="userSpaceOnUse" color-interpolation-filters="sRGB">
<feFlood flood-opacity="0" result="BackgroundImageFix"/>
<feColorMatrix in="SourceAlpha" type="matrix" values="0 0 0 0 0 0 0 0 0 0 0 0 0 0 0 0 0 0 127 0" result="hardAlpha"/>
<feOffset dy="4"/>
<feGaussianBlur stdDeviation="17"/>
<feComposite in2="hardAlpha" operator="out"/>
<feColorMatrix type="matrix" values="0 0 0 0 0 0 0 0 0 0 0 0 0 0 0 0 0 0 0.25 0"/>
<feBlend mode="normal" in2="BackgroundImageFix" result="effect1_dropShadow_290_182"/>
<feBlend mode="normal" in="SourceGraphic" in2="effect1_dropShadow_290_182" result="shape"/>
</filter>
<linearGradient id="paint0_linear_290_182" x1="156.456" y1="642.7" x2="624.652" y2="442.533" gradientUnits="userSpaceOnUse">
<stop stop-color="#4276FF"/>
<stop offset="1" stop-color="#08E6FF"/>
</linearGradient>
<linearGradient id="paint1_linear_290_182" x1="208.534" y1="628.547" x2="560.097" y2="528.922" gradientUnits="userSpaceOnUse">
<stop stop-color="#9D05FF"/>
<stop offset="1" stop-color="#FF05B9"/>
</linearGradient>
<linearGradient id="paint2_linear_290_182" x1="1662.18" y1="251.458" x2="1552.76" y2="244.438" gradientUnits="userSpaceOnUse">
<stop stop-color="#4274FF"/>
<stop offset="1" stop-color="#05EAFF"/>
</linearGradient>
<linearGradient id="paint3_linear_290_182" x1="1580.37" y1="236.511" x2="1612.64" y2="289.036" gradientUnits="userSpaceOnUse">
<stop stop-color="#06E9FF"/>
<stop offset="1" stop-color="#197FE7"/>
</linearGradient>
<linearGradient id="paint4_linear_290_182" x1="1624.27" y1="260.097" x2="1578.77" y2="221.629" gradientUnits="userSpaceOnUse">
<stop stop-color="#4276FF"/>
<stop offset="1" stop-color="#08E6FF"/>
</linearGradient>
<linearGradient id="paint5_linear_290_182" x1="1662.18" y1="251.458" x2="1552.76" y2="244.438" gradientUnits="userSpaceOnUse">
<stop stop-color="#4274FF"/>
<stop offset="1" stop-color="#05EAFF"/>
</linearGradient>
<linearGradient id="paint6_linear_290_182" x1="1337.2" y1="534.882" x2="1337.2" y2="708.953" gradientUnits="userSpaceOnUse">
<stop stop-color="#05EAFF"/>
<stop offset="1" stop-color="#05FF64"/>
</linearGradient>
<linearGradient id="paint7_linear_290_182" x1="1403.21" y1="430" x2="1403.21" y2="707.277" gradientUnits="userSpaceOnUse">
<stop stop-color="#05EAFF"/>
<stop offset="1" stop-color="#05FF64"/>
</linearGradient>
<clipPath id="clip0_290_182">
<rect width="110.483" height="86.6285" fill="white" transform="matrix(1 0 -0.213371 0.976971 1554.24 216.024)"/>
</clipPath>
</defs>
</svg>
