<svg width="200" height="200" viewBox="0 0 200 200" fill="none" xmlns="http://www.w3.org/2000/svg">
<path d="M31.9324 82.6186H37.9829V74C37.9829 74 31.6239 74 31.4697 74.0068C17.372 74.264 6 85.7378 6 99.8571C6 114.129 17.6204 125.701 31.9324 125.714H37.9829V117.094H31.9324C29.3067 117.084 26.7178 116.479 24.3616 115.323C22.0054 114.168 19.9437 112.493 18.3328 110.426C16.7218 108.359 15.6037 105.953 15.0631 103.391C14.5226 100.829 14.5738 98.1777 15.2128 95.6384C16.188 99.318 18.3568 102.573 21.3812 104.895C24.4055 107.217 28.1153 108.476 31.9324 108.476H37.9829V99.8571H31.9324C27.1922 99.8571 23.3338 95.965 23.3338 91.2386C23.3338 86.5121 27.1922 82.6186 31.9324 82.6186Z" fill="#0057FF"/>
<path d="M55.2716 103.347V96.3665C55.2716 91.425 58.2743 88.5848 63.8211 88.5848C66.1741 88.5848 68.1259 89.2326 69.6436 90.4996C71.1614 91.7666 71.9352 93.6487 71.9352 96.2154V96.5244H67.1036V96.2154C67.1036 93.9917 65.5244 92.9724 63.5113 92.9724C61.2192 92.9724 60.0732 93.9917 60.0732 96.0303V103.69C60.0732 105.728 61.2192 106.747 63.5113 106.747C65.5859 106.747 67.1036 105.821 67.1036 103.504V103.196H71.9352V103.504C71.9352 106.067 71.1614 107.982 69.6436 109.249C68.1259 110.516 66.1741 111.132 63.8211 111.132C58.2743 111.13 55.2716 108.295 55.2716 103.347Z" fill="#1E1E1E"/>
<path fill-rule="evenodd" clip-rule="evenodd" d="M74.7225 100.042C74.7225 96.4903 77.2935 94.0543 81.8768 94.0543C86.4601 94.0543 89.0016 96.4944 89.0016 100.042V105.015C89.0016 108.566 86.4614 111.037 81.8768 111.037C77.2921 111.037 74.7225 108.567 74.7225 105.015V100.042ZM84.6028 104.86V100.265C84.6028 98.9372 83.6114 98.0105 81.8727 98.0105C80.0455 98.0105 79.1158 98.9984 79.1158 100.265V104.867C79.1158 106.134 80.0455 107.09 81.8727 107.09C83.6114 107.084 84.6028 106.127 84.6028 104.86Z" fill="#1E1E1E"/>
<path d="M92.4379 94.4218V110.667H96.8374V94.4218H92.4379Z" fill="#1E1E1E"/>
<path d="M100.994 110.667V94.4217H103.503L104.711 95.935C105.336 95.3238 106.077 94.8425 106.891 94.519C107.704 94.1955 108.574 94.0361 109.45 94.0502C113.012 94.0502 115.118 96.429 115.118 100.382V110.667H110.713V100.629C110.713 98.8991 109.784 98.0036 108.452 98.0036C107.306 98.0036 106.283 98.5289 105.386 99.5482V110.667H100.994Z" fill="#1E1E1E"/>
<path d="M118.115 105.076C118.147 106.837 118.828 108.257 120.129 109.37C121.467 110.48 123.196 111.037 125.361 111.042C129.542 111.042 132.175 109.035 132.175 105.668C132.175 103.352 130.905 101.839 128.366 101.191L124.091 100.109C123.224 99.8938 122.79 99.5536 122.79 99.1208C122.79 98.3492 123.473 97.9477 124.838 97.9477C126.386 97.9477 127.346 98.5343 127.687 99.7074H131.93C131.803 96.2493 129.112 94.0555 125.116 94.0555C120.934 94.0555 118.518 96.0588 118.518 99.3631C118.518 101.617 119.85 103.067 122.483 103.748L126.479 104.767C127.439 105.015 127.904 105.416 127.904 106.003C127.904 106.713 127.099 107.146 125.767 107.146C123.784 107.146 122.663 106.466 122.39 105.076H118.115Z" fill="#1E1E1E"/>
<path fill-rule="evenodd" clip-rule="evenodd" d="M135.798 110.667V89.0475H145.524C149.397 89.0475 151.72 91.6726 151.72 95.8425C151.72 100.012 149.399 102.606 145.524 102.606H140.603V110.667H135.798ZM140.6 98.4363H144.626C145.834 98.4363 146.857 97.5722 146.857 95.8425C146.857 94.1127 145.834 93.2173 144.626 93.2173H140.603L140.6 98.4363Z" fill="#1E1E1E"/>
<path fill-rule="evenodd" clip-rule="evenodd" d="M163.493 109.153L164.701 110.667H167.241V99.672C167.241 96.2439 164.854 94.0502 160.488 94.0502C156.121 94.0502 153.828 96.2439 153.828 99.6094H158.135C158.135 98.5289 158.907 98.0036 160.488 98.0036C162.068 98.0036 162.842 98.6527 162.842 99.9809V100.876H159.652C155.285 100.876 153.086 102.791 153.086 106.157C153.085 107.701 153.611 108.906 154.665 109.771C155.719 110.604 157.019 111.037 158.567 111.037C160.519 111.037 162.161 110.419 163.493 109.153ZM162.842 103.964V105.755C161.975 106.713 160.86 107.176 159.496 107.176C158.166 107.176 157.483 106.523 157.483 105.57C157.483 104.49 158.196 103.964 159.652 103.964H162.842Z" fill="#1E1E1E"/>
<path d="M171.236 110.667V94.4218H175.635V110.667H171.236Z" fill="#1E1E1E"/>
<path fill-rule="evenodd" clip-rule="evenodd" d="M189.882 109.153L191.09 110.667L193.595 110.668V88.8937H189.196V95.3784C188.137 94.4829 186.775 94.0502 185.102 94.0502C183.428 94.0502 182.034 94.5455 180.951 95.5635C179.871 96.5529 179.313 98.0349 179.313 99.981V105.076C179.313 108.996 181.76 111.037 185.105 111.037C185.987 111.052 186.862 110.893 187.682 110.57C188.502 110.247 189.25 109.766 189.882 109.153ZM189.2 99.5509V105.539C188.178 106.558 187.094 107.084 186.01 107.081C185.706 107.084 185.405 107.026 185.124 106.91C184.843 106.794 184.588 106.623 184.374 106.408C184.16 106.192 183.992 105.935 183.879 105.654C183.767 105.372 183.712 105.07 183.719 104.767V100.32C183.713 100.017 183.767 99.7154 183.879 99.4336C183.992 99.1519 184.16 98.8956 184.374 98.6799C184.588 98.4641 184.843 98.2933 185.124 98.1777C185.405 98.062 185.706 98.0037 186.01 98.0063C187.094 98.0063 188.178 98.5316 189.2 99.5509Z" fill="#1E1E1E"/>
</svg>
