<svg width="200" height="200" viewBox="0 0 200 200" fill="none" xmlns="http://www.w3.org/2000/svg">
<path d="M86.9874 115.369V98.8105C86.9874 97.9449 86.6978 97.5725 86.0532 97.7029C85.4087 97.8332 85.1845 98.3265 85.1845 99.1921V115.806L78.3466 117.5V98.2613L76.5997 98.6429V93.7843L85.2592 92.0438V93.6261C85.801 92.4441 87.1275 91.6715 89.1453 91.262C90.9388 90.899 92.0971 91.4109 92.667 92.7326C93.0579 91.9374 93.6357 91.2481 94.3513 90.723C95.0669 90.198 95.8991 89.8529 96.7772 89.7169C99.673 89.1305 101.121 90.1451 101.121 92.7884V111.841L94.7127 113.461V97.1537C94.7127 96.2974 94.4325 95.9344 93.844 96.0554C93.2555 96.1764 93.0033 96.6604 93.0033 97.5167V113.879L86.9874 115.369ZM189.958 89.9775V68.5607L188.837 68.7841V64.9959L194.18 64V71.4461C194.389 70.9668 194.724 70.5528 195.15 70.248C195.576 69.9432 196.077 69.759 196.6 69.7149C198.468 69.3426 200 70.1896 200 72.3117V87.4831L195.918 88.4976V75.6066C195.942 75.4874 195.937 75.3643 195.905 75.2471C195.872 75.1299 195.813 75.0218 195.731 74.9314C195.65 74.8411 195.548 74.7709 195.435 74.7266C195.321 74.6822 195.199 74.6648 195.077 74.6758C194.82 74.7407 194.593 74.8899 194.432 75.0993C194.271 75.3088 194.186 75.5662 194.19 75.83V88.9258L189.958 89.9775ZM187.641 82.1591V86.087C187.742 87.3846 187.35 88.6726 186.541 89.6952C185.733 90.7177 184.569 91.4 183.279 91.6064L182.055 91.9135C179.122 92.6395 176.964 91.6436 176.964 88.6186V78.1569C176.964 75.1412 179.15 73.2425 182.13 72.6375L183.335 72.3768C186.212 71.7998 187.632 73.0284 187.632 76.0347V79.7299L183.27 80.6606V77.2075C183.27 76.3791 182.887 76.1278 182.485 76.2116C182.186 76.2679 181.918 76.4317 181.732 76.6719C181.546 76.9121 181.455 77.212 181.476 77.5146V87.0456C181.467 87.1986 181.497 87.3514 181.561 87.4903C181.626 87.6293 181.724 87.7502 181.847 87.8422C181.97 87.9343 182.114 87.9947 182.266 88.0181C182.418 88.0415 182.573 88.0272 182.718 87.9764C182.943 87.8781 183.126 87.7035 183.234 87.4836C183.341 87.2637 183.367 87.0129 183.307 86.7757V83.1551L187.641 82.1591ZM174.685 74.2384V93.7843L172.228 94.3986C172.03 94.4814 171.817 94.5201 171.603 94.5119C171.389 94.5038 171.179 94.449 170.989 94.3514C170.798 94.2538 170.631 94.1158 170.5 93.947C170.369 93.7783 170.276 93.583 170.229 93.3748C169.94 93.9412 169.53 94.4379 169.028 94.8302C168.526 95.2225 167.945 95.5008 167.324 95.6459C165.138 96.1857 163.503 95.2643 163.503 92.956V80.8561C163.503 77.8125 165.138 76.1185 167.324 75.681C168.762 75.3925 169.687 75.7369 170.07 76.7142V75.1691L174.685 74.2384ZM170.014 79.8229C170.037 79.6972 170.023 79.5676 169.975 79.449C169.927 79.3305 169.847 79.2278 169.743 79.1528C169.616 79.0672 169.467 79.0214 169.313 79.0214C169.16 79.0214 169.011 79.0672 168.884 79.1528C168.649 79.294 168.461 79.5006 168.343 79.7471C168.226 79.9936 168.183 80.2692 168.22 80.5396L168.155 89.3539C168.152 89.4955 168.181 89.6359 168.24 89.7646C168.299 89.8933 168.387 90.0069 168.497 90.0966C168.607 90.1864 168.736 90.25 168.874 90.2826C169.012 90.3152 169.156 90.3159 169.295 90.2847C169.415 90.2717 169.531 90.2327 169.635 90.1703C169.739 90.1079 169.828 90.0236 169.895 89.9234C169.963 89.8232 170.008 89.7095 170.027 89.5902C170.046 89.4709 170.038 89.349 170.005 89.2329V79.8229H170.014ZM154.358 71.3251V79.8229C154.585 79.2206 154.977 78.6934 155.488 78.3005C156 77.9075 156.611 77.6644 157.254 77.5984C159.505 77.1423 161.233 78.4082 161.233 81.4704V93.6168C161.233 95.9344 159.505 97.3399 157.254 97.9262C155.712 98.3078 154.759 98.1031 154.358 97.284V98.6522L149.276 99.9181V76.4164L148.052 76.6583V72.4978L154.358 71.3251ZM154.358 92.6023C154.358 93.533 154.703 93.5982 155.292 93.533C155.444 93.5184 155.591 93.4729 155.725 93.3994C155.859 93.3259 155.976 93.226 156.07 93.1057C156.163 92.9854 156.231 92.8473 156.27 92.7C156.308 92.5526 156.315 92.399 156.291 92.2486V82.82C156.291 81.7682 155.563 81.7961 154.965 81.9451C154.883 81.9612 154.805 81.9894 154.731 82.0288C154.58 82.1275 154.46 82.2681 154.387 82.4333C154.314 82.5986 154.291 82.7815 154.32 82.9596V92.6023H154.358ZM146.959 95.5528C146.959 98.7825 145.567 100.765 142.737 101.463L139 102.394C136.394 103.045 135.096 101.649 135.096 98.2613V95.8506L139.766 94.8361V96.9024C139.766 97.678 140.174 97.9697 140.99 97.7773C141.335 97.731 141.65 97.5567 141.872 97.2893C142.093 97.0218 142.205 96.6809 142.186 96.3346V94.4731C142.186 93.4865 141.429 93.0677 139.869 93.2073L139.178 93.3655C136.497 93.9798 135.142 92.6116 135.142 89.7262V86.9339C135.142 83.6204 136.6 81.6472 139.514 81.0608L143.195 80.3162C145.726 79.8043 146.931 81.247 146.931 84.5233V86.8223L142.447 87.8368V85.724C142.48 85.5679 142.468 85.4057 142.413 85.2561C142.358 85.1065 142.261 84.9755 142.134 84.8782C142.007 84.781 141.855 84.7214 141.696 84.7064C141.536 84.6913 141.376 84.7214 141.233 84.7932C140.89 84.8308 140.574 84.9987 140.351 85.2621C140.128 85.5256 140.016 85.8642 140.037 86.208V88.0695C140.037 89.0561 140.803 89.4842 142.354 89.3539L143.036 89.205C145.642 88.6279 146.931 90.0055 146.931 92.7884V95.5528H146.959ZM121.298 106.815V89.1305L119.766 89.4563V85.1003L127.053 83.6297V85.0817C127.511 84.0114 128.594 83.3226 130.332 82.9689C132.854 82.457 133.227 83.5087 133.227 85.9753V91.5598L128.557 92.714V89.8565C128.557 89.0561 128.314 88.7117 127.8 88.8234C127.286 88.9351 127.071 89.3818 127.071 90.173V105.428L121.298 106.815ZM117.879 99.5085L117.936 102.394C117.936 105.838 115.946 108.137 111.948 109.133L110.229 109.607C106.184 110.613 104.138 109.328 104.138 105.782V93.5796C104.138 90.0334 106.212 87.8275 110.322 86.9991L112.004 86.664C115.955 85.8636 117.898 87.2504 117.898 90.7687V97.6191L110.35 99.3689V103.93C110.35 104.758 110.696 105.084 111.425 104.916C111.762 104.848 112.062 104.657 112.264 104.379C112.467 104.102 112.557 103.759 112.518 103.418V100.765L117.879 99.5085ZM111.948 95.2643V92.3044C111.948 91.4761 111.686 91.1224 111.135 91.2341C110.584 91.3458 110.35 91.8111 110.35 92.6395V95.6459L111.948 95.2643ZM58.0757 122.489V104.953C58.0757 104.023 57.7581 103.65 57.0761 103.79C56.7513 103.891 56.4758 104.11 56.3032 104.402C56.1306 104.694 56.0731 105.04 56.142 105.372V122.973L48.4914 124.835V104.507L46.4176 104.953V99.825L56.114 97.8704V99.5458C56.7212 98.2892 58.1504 97.4609 60.4577 96.9955C62.4661 96.5952 63.7553 97.1165 64.3905 98.5126C64.8479 97.6541 65.5012 96.9146 66.2978 96.3536C67.0945 95.7926 68.0122 95.4259 68.9771 95.2829C72.2092 94.622 73.7973 95.6459 73.7973 98.4382V118.524L66.6511 120.33V103.092C66.6511 102.161 66.3428 101.808 65.7169 101.947C65.3923 102.043 65.1159 102.257 64.9427 102.547C64.7696 102.837 64.7125 103.181 64.7828 103.511V120.823L58.0757 122.489ZM44.1756 116.123L44.2223 119.697C44.2223 123.68 41.5694 126.352 36.198 127.683L33.9374 128.241C28.4914 129.591 25.7263 128.241 25.7263 124.081V109.952C25.7263 105.838 28.5287 103.185 34.0495 102.077L36.3101 101.621C41.6067 100.56 44.213 102.087 44.213 106.154V114.075L34.0588 116.383V121.707C34.0176 121.892 34.0304 122.085 34.0956 122.264C34.1607 122.442 34.2756 122.598 34.4268 122.713C34.5779 122.829 34.7589 122.899 34.9486 122.915C35.1383 122.931 35.3287 122.893 35.4974 122.805C35.9241 122.748 36.3132 122.531 36.5868 122.2C36.8604 121.869 36.9985 121.447 36.9734 121.018V117.779L44.1756 116.123ZM36.2074 111.608V108.165C36.2074 107.234 35.8617 106.806 35.1238 106.964C34.7694 107.055 34.4629 107.276 34.2668 107.584C34.0707 107.892 33.9997 108.263 34.0682 108.621V112.111L36.2074 111.608ZM2.41009 136.115V102.459L0 102.934V97.3492L11.4246 95.227V108.453C12.1439 107.085 13.8253 106.154 16.5343 105.605C20.4577 104.814 22.4101 105.931 22.4101 109.012V131.145L13.7693 133.295L13.7412 114.308C13.7412 113.312 13.3676 112.893 12.5642 113.07C12.1876 113.161 11.8601 113.392 11.6483 113.715C11.4366 114.038 11.3566 114.43 11.4246 114.81V133.872L2.41009 136.115Z" fill="#E36327"/>
</svg>
