<svg width="228" height="146" viewBox="0 0 228 146" fill="none" xmlns="http://www.w3.org/2000/svg">
<g clip-path="url(#clip0_272_148)">
<mask id="mask0_272_148" style="mask-type:alpha" maskUnits="userSpaceOnUse" x="33" y="0" width="163" height="146">
<path d="M33.96 51.7937C33.96 49.3817 35.2139 47.1466 37.2633 45.9056L111.459 0.978538C113.614 -0.326178 116.306 -0.32618 118.461 0.978536L192.657 45.9056C194.706 47.1466 195.96 49.3817 195.96 51.7937V139.133C195.96 142.926 192.914 146 189.156 146H40.764C37.0062 146 33.96 142.926 33.96 139.133V51.7937Z" fill="#7E7E7E"/>
</mask>
<g mask="url(#mask0_272_148)">
<path fill-rule="evenodd" clip-rule="evenodd" d="M33.96 47.9059L114.96 -1.14114L195.96 47.9059H33.96ZM195.96 146V47.906H33.96V146H195.96Z" fill="white"/>
<g clip-path="url(#clip1_272_148)">
<mask id="mask1_272_148" style="mask-type:alpha" maskUnits="userSpaceOnUse" x="71" y="12" width="89" height="88">
<ellipse cx="115.329" cy="56.1626" rx="44" ry="43.8374" fill="#D9D9D9"/>
</mask>
<g mask="url(#mask1_272_148)">
<path d="M115.285 57.4777C135.236 57.4777 151.409 46.0747 151.409 32.0082C151.409 31.6799 151.401 31.353 151.383 31.0277C156.391 38.1444 159.329 46.8116 159.329 56.1626C159.329 80.3733 139.63 100 115.329 100C91.0288 100 71.3293 80.3733 71.3293 56.1626C71.3293 46.8707 74.231 38.254 79.1809 31.1629C79.1679 31.4436 79.1613 31.7254 79.1613 32.0082C79.1613 46.0747 95.3346 57.4777 115.285 57.4777Z" fill="url(#paint0_linear_272_148)"/>
<path d="M159.329 56.1626C159.329 80.3733 139.63 100 115.329 100C91.0288 100 71.3293 80.3733 71.3293 56.1626C71.3293 30.3424 93.4503 64.0499 115.329 73.2592C149.385 87.594 159.329 33.1042 159.329 56.1626Z" fill="url(#paint1_linear_272_148)"/>
<path d="M159.329 56.1626C159.329 68.8925 139.63 100 115.329 100C91.0288 100 71.3293 80.3733 71.3293 56.1626C94.9133 81.0184 89.8973 53.2255 142.521 64.7109C176.506 72.1282 159.329 28.019 159.329 56.1626Z" fill="url(#paint2_linear_272_148)"/>
<path d="M159.329 56.1626C159.329 80.3733 139.63 100 115.329 100C91.0288 100 71.3293 80.0978 71.3293 56.1626C74.9813 64.4917 93.0213 84.4816 115.329 79.3088C148.813 69.533 159.329 31.9519 159.329 56.1626Z" fill="url(#paint3_linear_272_148)"/>
<path d="M103.009 69.4454C103.738 69.4454 104.341 70.0384 104.217 70.7541C104.12 71.3109 103.961 71.8566 103.743 72.3811C103.356 73.3119 102.789 74.1576 102.074 74.87C101.359 75.5823 100.51 76.1474 99.576 76.533C98.6418 76.9185 97.6405 77.1169 96.6294 77.1169C95.6182 77.1169 94.6169 76.9185 93.6827 76.5329C92.7485 76.1474 91.8997 75.5823 91.1846 74.87C90.4696 74.1576 89.9025 73.3119 89.5155 72.3811C89.2974 71.8566 89.139 71.3109 89.0422 70.7541C88.9179 70.0384 89.5204 69.4454 90.2494 69.4454L103.009 69.4454Z" fill="white"/>
<path d="M140.409 69.4454C141.138 69.4454 141.741 70.0384 141.617 70.7541C141.52 71.3109 141.361 71.8566 141.143 72.3811C140.756 73.3119 140.189 74.1576 139.474 74.87C138.759 75.5823 137.91 76.1474 136.976 76.533C136.042 76.9185 135.041 77.1169 134.029 77.1169C133.018 77.1169 132.017 76.9185 131.083 76.5329C130.148 76.1474 129.3 75.5823 128.585 74.87C127.87 74.1576 127.302 73.3119 126.915 72.3811C126.697 71.8566 126.539 71.3109 126.442 70.7541C126.318 70.0384 126.92 69.4454 127.649 69.4454L140.409 69.4454Z" fill="white"/>
<path d="M114.457 86.1036C114.796 85.5191 115.643 85.5191 115.981 86.1036L118.274 90.0596C118.769 90.9132 117.692 91.8049 116.94 91.1643L115.791 90.1856C115.462 89.905 114.977 89.905 114.647 90.1856L113.499 91.1643C112.747 91.8049 111.67 90.9132 112.165 90.0596L114.457 86.1036Z" fill="white"/>
</g>
</g>
<g filter="url(#filter0_d_272_148)">
<path d="M33.96 146L195.96 47.9059V146H33.96Z" fill="white"/>
</g>
<g filter="url(#filter1_d_272_148)">
<path d="M33.96 47.9059L195.96 146H33.96V47.9059Z" fill="white"/>
</g>
</g>
</g>
<path d="M187.323 72.6524C187.331 72.597 187.332 72.5419 187.322 72.4877C187.321 72.4795 187.322 72.4718 187.32 72.4636C187.306 72.4004 187.279 72.3407 187.243 72.2845C187.239 72.2783 187.239 72.2717 187.235 72.2655C187.229 72.2562 187.219 72.2516 187.212 72.2427C187.197 72.2241 187.186 72.2031 187.169 72.1861C187.148 72.1644 187.121 72.1485 187.097 72.1303C187.084 72.1206 187.073 72.1093 187.059 72.1008C187.003 72.0647 186.941 72.0372 186.875 72.0198C186.863 72.0167 186.852 72.0163 186.84 72.014C186.784 72.0023 186.727 71.9981 186.669 72.0008C186.65 72.0016 186.632 72.0031 186.612 72.0054C186.596 72.0078 186.579 72.0062 186.562 72.0093L149.825 79.551C149.567 79.6041 149.372 79.7987 149.335 80.0391C149.299 80.2794 149.43 80.5155 149.662 80.6302L159.596 85.538L162.69 94.593C162.693 94.6027 162.7 94.6097 162.704 94.619C162.713 94.6407 162.726 94.66 162.738 94.681C162.763 94.7252 162.791 94.7655 162.827 94.8019C162.836 94.8116 162.84 94.824 162.85 94.8329C162.859 94.8411 162.871 94.8438 162.88 94.8515C162.922 94.8849 162.968 94.9116 163.018 94.9341C163.038 94.943 163.055 94.9546 163.075 94.9612C163.144 94.9849 163.217 95 163.293 95C163.298 95 163.303 95 163.307 95C163.383 94.9984 163.455 94.9829 163.522 94.9585C163.54 94.9523 163.554 94.9415 163.57 94.9341C163.624 94.9097 163.673 94.8802 163.718 94.843C163.726 94.836 163.737 94.8337 163.745 94.826L168.816 90.0934L178.605 94.9298C178.698 94.976 178.801 94.9996 178.905 94.9996C178.984 94.9996 179.064 94.986 179.14 94.9581C179.314 94.8946 179.448 94.7628 179.507 94.5992L187.302 72.7582C187.308 72.7412 187.308 72.7233 187.312 72.7059C187.317 72.6881 187.321 72.6706 187.323 72.6524ZM180.71 76.0624L164.872 87.2149L164.869 87.218C164.822 87.2517 164.781 87.2932 164.745 87.3397C164.737 87.3494 164.73 87.3591 164.723 87.3691C164.716 87.38 164.707 87.3893 164.7 87.4005C164.677 87.4393 164.661 87.4796 164.649 87.5203L164.646 87.5257L163.245 92.335L160.886 85.4318L180.71 76.0624Z" fill="#333333"/>
<path d="M31.8293 94.5C-65.1707 142 119.309 141.666 166.329 90" stroke="#333333" stroke-width="3" stroke-linecap="round" stroke-dasharray="6 6"/>
<defs>
<filter id="filter0_d_272_148" x="-0.0400391" y="17.9059" width="230" height="166.094" filterUnits="userSpaceOnUse" color-interpolation-filters="sRGB">
<feFlood flood-opacity="0" result="BackgroundImageFix"/>
<feColorMatrix in="SourceAlpha" type="matrix" values="0 0 0 0 0 0 0 0 0 0 0 0 0 0 0 0 0 0 127 0" result="hardAlpha"/>
<feOffset dy="4"/>
<feGaussianBlur stdDeviation="17"/>
<feComposite in2="hardAlpha" operator="out"/>
<feColorMatrix type="matrix" values="0 0 0 0 0 0 0 0 0 0 0 0 0 0 0 0 0 0 0.25 0"/>
<feBlend mode="normal" in2="BackgroundImageFix" result="effect1_dropShadow_272_148"/>
<feBlend mode="normal" in="SourceGraphic" in2="effect1_dropShadow_272_148" result="shape"/>
</filter>
<filter id="filter1_d_272_148" x="-0.0400391" y="17.9059" width="230" height="166.094" filterUnits="userSpaceOnUse" color-interpolation-filters="sRGB">
<feFlood flood-opacity="0" result="BackgroundImageFix"/>
<feColorMatrix in="SourceAlpha" type="matrix" values="0 0 0 0 0 0 0 0 0 0 0 0 0 0 0 0 0 0 127 0" result="hardAlpha"/>
<feOffset dy="4"/>
<feGaussianBlur stdDeviation="17"/>
<feComposite in2="hardAlpha" operator="out"/>
<feColorMatrix type="matrix" values="0 0 0 0 0 0 0 0 0 0 0 0 0 0 0 0 0 0 0.25 0"/>
<feBlend mode="normal" in2="BackgroundImageFix" result="effect1_dropShadow_272_148"/>
<feBlend mode="normal" in="SourceGraphic" in2="effect1_dropShadow_272_148" result="shape"/>
</filter>
<linearGradient id="paint0_linear_272_148" x1="163.465" y1="59.8888" x2="77.8994" y2="72.7824" gradientUnits="userSpaceOnUse">
<stop stop-color="#4274FF"/>
<stop offset="1" stop-color="#05EAFF"/>
</linearGradient>
<linearGradient id="paint1_linear_272_148" x1="95.7073" y1="47.7026" x2="128.098" y2="92.3029" gradientUnits="userSpaceOnUse">
<stop stop-color="#06E9FF"/>
<stop offset="1" stop-color="#197FE7"/>
</linearGradient>
<linearGradient id="paint2_linear_272_148" x1="134.777" y1="66.9318" x2="89.5872" y2="39.2506" gradientUnits="userSpaceOnUse">
<stop stop-color="#4276FF"/>
<stop offset="1" stop-color="#08E6FF"/>
</linearGradient>
<linearGradient id="paint3_linear_272_148" x1="163.465" y1="59.8888" x2="77.8994" y2="72.7824" gradientUnits="userSpaceOnUse">
<stop stop-color="#4274FF"/>
<stop offset="1" stop-color="#05EAFF"/>
</linearGradient>
<clipPath id="clip0_272_148">
<rect x="33.96" width="162" height="146" rx="8" fill="white"/>
</clipPath>
<clipPath id="clip1_272_148">
<rect width="88" height="69" fill="white" transform="translate(71.3293 31)"/>
</clipPath>
</defs>
</svg>
